<svg xmlns="http://www.w3.org/2000/svg" xmlns:xlink="http://www.w3.org/1999/xlink" width="1486" height="834" viewBox="0 0 1486 834">
  <defs>
    <clipPath id="clip-path">
      <rect id="Rectangle_303" data-name="Rectangle 303" width="1486" height="834" transform="translate(0 4525)" fill="#fff" stroke="#707070" stroke-width="1"/>
    </clipPath>
  </defs>
  <g id="Mask_Group_5" data-name="Mask Group 5" transform="translate(0 -4525)" clip-path="url(#clip-path)">
    <g id="Ellipse_5" data-name="Ellipse 5" transform="translate(759 4525)" fill="none" stroke="#ea6676" stroke-width="20" opacity="0.27">
      <circle cx="119" cy="119" r="119" stroke="none"/>
      <circle cx="119" cy="119" r="109" fill="none"/>
    </g>
    <path id="Shape_10_copy" data-name="Shape 10 copy" d="M2009.65,1153.437,1869.827,872.129C1798.471,728.569,1857,554.345,2000.564,482.99l281.309-139.823c143.56-71.355,317.783-12.823,389.139,130.737l139.823,281.309c71.355,143.56,12.822,317.783-130.737,389.139l-281.308,139.823C2255.229,1355.53,2081.005,1297,2009.65,1153.437Z" transform="matrix(-0.07, 0.998, -0.998, -0.07, 2758.869, 2617.804)" fill="#f8a39d" opacity="0.692"/>
    <circle id="Ellipse_4" data-name="Ellipse 4" cx="250" cy="250" r="250" transform="translate(74 4824)" fill="#edaa86" opacity="0.27"/>
  </g>
</svg>
