<svg id="icon" xmlns="http://www.w3.org/2000/svg" width="19.422" height="19.422" viewBox="0 0 19.422 19.422">
  <path id="Path_49" data-name="Path 49" d="M19.747,5.988A.748.748,0,0,1,19,5.241V3.747A.748.748,0,0,1,19.747,3h1.494a.748.748,0,0,1,.747.747V5.241a.748.748,0,0,1-.747.747Z" transform="translate(-4.807 -0.759)" fill="#fff"/>
  <path id="Path_50" data-name="Path 50" d="M12.036,9.188a2.829,2.829,0,0,0-1.474.421,1.41,1.41,0,0,1,.421-.069,1.444,1.444,0,1,1-1.444,1.445,1.427,1.427,0,0,1,.07-.422,2.816,2.816,0,0,0-.421,1.474,2.848,2.848,0,1,0,2.848-2.848Z" transform="translate(-2.325 -2.325)" fill="#fff"/>
  <g id="Group_65" data-name="Group 65" transform="translate(3.735 3.735)">
    <path id="Path_51" data-name="Path 51" d="M10.976,6.494a4.482,4.482,0,1,1-4.482,4.482,4.482,4.482,0,0,1,4.482-4.482m0-1.494a5.976,5.976,0,1,0,5.976,5.976A5.983,5.983,0,0,0,10.976,5Z" transform="translate(-5 -5)" fill="#fff"/>
  </g>
  <path id="Path_52" data-name="Path 52" d="M15.78,0H3.642A3.641,3.641,0,0,0,0,3.642V15.78a3.641,3.641,0,0,0,3.642,3.642H15.78a3.641,3.641,0,0,0,3.642-3.642V3.642A3.641,3.641,0,0,0,15.78,0Zm2.148,6.723H13.045a4.482,4.482,0,1,1-6.668,0H1.494V3.642A2.15,2.15,0,0,1,3.642,1.494H15.78a2.15,2.15,0,0,1,2.148,2.148Z" fill="#fff"/>
</svg>
