<svg xmlns="http://www.w3.org/2000/svg" xmlns:xlink="http://www.w3.org/1999/xlink" width="383.07" height="383.07" viewBox="0 0 383.07 383.07">
  <defs>
    <clipPath id="clip-path">
      <rect id="Rectangle_296" data-name="Rectangle 296" width="63.391" height="35.954" fill="none"/>
    </clipPath>
  </defs>
  <g id="Group_146" data-name="Group 146" transform="translate(-10.912 -922.797)">
    <g id="Component_3_1" data-name="Component 3 – 1" transform="translate(10.912 922.797)">
      <path id="Shape_10_copy" data-name="Shape 10 copy" d="M1904.515,634.218,1851.05,526.652a111,111,0,0,1,49.991-148.8l107.566-53.465a111,111,0,0,1,148.8,49.991l53.465,107.566a111,111,0,0,1-49.991,148.8l-107.565,53.465A111,111,0,0,1,1904.515,634.218Z" transform="translate(-1839.425 -312.765)" fill="#f8a39d" opacity="0.83"/>
      <g id="سرمایه_گذاری_جسورانه-01" data-name="سرمایه گذاری جسورانه-01" transform="translate(41.046 112.501)">
        <ellipse id="Ellipse_50" data-name="Ellipse 50" cx="147.644" cy="17.725" rx="147.644" ry="17.725" transform="translate(0 122.902)" fill="#39666e"/>
        <path id="Path_684" data-name="Path 684" d="M199.039,28.51a3.779,3.779,0,1,0,3.779,3.779,3.779,3.779,0,0,0-3.779-3.779Z" transform="translate(-187.689 -6.288)" fill="#739399"/>
        <path id="Path_685" data-name="Path 685" d="M206.579,28.51a3.779,3.779,0,1,0,3.779,3.779,3.779,3.779,0,0,0-3.779-3.779Z" transform="translate(-185.73 -6.288)" fill="#739399"/>
        <path id="Path_686" data-name="Path 686" d="M214.129,28.51a3.779,3.779,0,1,0,3.779,3.779,3.779,3.779,0,0,0-3.779-3.779Z" transform="translate(-183.769 -6.288)" fill="#739399"/>
        <path id="Path_687" data-name="Path 687" d="M221.669,28.51a3.779,3.779,0,1,0,3.779,3.779,3.779,3.779,0,0,0-3.779-3.779Z" transform="translate(-181.81 -6.288)" fill="#739399"/>
        <path id="Path_688" data-name="Path 688" d="M229.219,28.51A3.779,3.779,0,1,0,233,32.289a3.779,3.779,0,0,0-3.779-3.779Z" transform="translate(-179.849 -6.288)" fill="#739399"/>
        <path id="Path_689" data-name="Path 689" d="M236.779,28.51a3.779,3.779,0,1,0,3.779,3.779,3.779,3.779,0,0,0-3.779-3.779Z" transform="translate(-177.885 -6.288)" fill="#739399"/>
        <path id="Path_690" data-name="Path 690" d="M244.3,28.51a3.779,3.779,0,1,0,3.779,3.779A3.779,3.779,0,0,0,244.3,28.51Z" transform="translate(-175.932 -6.288)" fill="#739399"/>
        <path id="Path_691" data-name="Path 691" d="M251.849,28.51a3.779,3.779,0,1,0,3.779,3.779,3.779,3.779,0,0,0-3.779-3.779Z" transform="translate(-173.971 -6.288)" fill="#739399"/>
        <path id="Path_692" data-name="Path 692" d="M259.389,28.51a3.779,3.779,0,1,0,3.779,3.779,3.779,3.779,0,0,0-3.779-3.779Z" transform="translate(-172.012 -6.288)" fill="#739399"/>
        <path id="Path_693" data-name="Path 693" d="M266.939,28.51a3.779,3.779,0,1,0,3.779,3.779,3.779,3.779,0,0,0-3.779-3.779Z" transform="translate(-170.051 -6.288)" fill="#739399"/>
        <path id="Path_694" data-name="Path 694" d="M274.479,28.51a3.779,3.779,0,1,0,3.779,3.779,3.779,3.779,0,0,0-3.779-3.779Z" transform="translate(-168.093 -6.288)" fill="#739399"/>
        <path id="Path_695" data-name="Path 695" d="M282.029,28.51a3.779,3.779,0,1,0,3.779,3.779,3.779,3.779,0,0,0-3.779-3.779Z" transform="translate(-166.131 -6.288)" fill="#739399"/>
        <path id="Path_696" data-name="Path 696" d="M289.569,28.51a3.779,3.779,0,1,0,3.779,3.779,3.779,3.779,0,0,0-3.779-3.779Z" transform="translate(-164.173 -6.288)" fill="#739399"/>
        <path id="Path_697" data-name="Path 697" d="M297.119,28.51a3.779,3.779,0,1,0,3.779,3.779,3.779,3.779,0,0,0-3.779-3.779Z" transform="translate(-162.212 -6.288)" fill="#739399"/>
        <path id="Path_698" data-name="Path 698" d="M199.039,36.06a3.779,3.779,0,1,0,3.779,3.779,3.779,3.779,0,0,0-3.779-3.779Z" transform="translate(-187.689 -4.327)" fill="#739399"/>
        <path id="Path_699" data-name="Path 699" d="M206.579,36.06a3.779,3.779,0,1,0,3.779,3.779,3.779,3.779,0,0,0-3.779-3.779Z" transform="translate(-185.73 -4.327)" fill="#739399"/>
        <path id="Path_700" data-name="Path 700" d="M214.129,36.06a3.779,3.779,0,1,0,3.779,3.779A3.779,3.779,0,0,0,214.129,36.06Z" transform="translate(-183.769 -4.327)" fill="#739399"/>
        <path id="Path_701" data-name="Path 701" d="M221.669,36.06a3.779,3.779,0,1,0,3.779,3.779,3.779,3.779,0,0,0-3.779-3.779Z" transform="translate(-181.81 -4.327)" fill="#739399"/>
        <path id="Path_702" data-name="Path 702" d="M229.219,36.06A3.779,3.779,0,1,0,233,39.839,3.779,3.779,0,0,0,229.219,36.06Z" transform="translate(-179.849 -4.327)" fill="#739399"/>
        <path id="Path_703" data-name="Path 703" d="M236.779,36.06a3.779,3.779,0,1,0,3.779,3.779,3.779,3.779,0,0,0-3.779-3.779Z" transform="translate(-177.885 -4.327)" fill="#739399"/>
        <path id="Path_704" data-name="Path 704" d="M244.3,36.06a3.779,3.779,0,1,0,3.779,3.779A3.779,3.779,0,0,0,244.3,36.06Z" transform="translate(-175.932 -4.327)" fill="#739399"/>
        <path id="Path_705" data-name="Path 705" d="M251.849,36.06a3.779,3.779,0,1,0,3.779,3.779A3.779,3.779,0,0,0,251.849,36.06Z" transform="translate(-173.971 -4.327)" fill="#739399"/>
        <path id="Path_706" data-name="Path 706" d="M259.389,36.06a3.779,3.779,0,1,0,3.779,3.779A3.779,3.779,0,0,0,259.389,36.06Z" transform="translate(-172.012 -4.327)" fill="#739399"/>
        <path id="Path_707" data-name="Path 707" d="M266.939,36.06a3.779,3.779,0,1,0,3.779,3.779A3.779,3.779,0,0,0,266.939,36.06Z" transform="translate(-170.051 -4.327)" fill="#739399"/>
        <path id="Path_708" data-name="Path 708" d="M274.479,36.06a3.779,3.779,0,1,0,3.779,3.779A3.779,3.779,0,0,0,274.479,36.06Z" transform="translate(-168.093 -4.327)" fill="#739399"/>
        <path id="Path_709" data-name="Path 709" d="M282.029,36.06a3.779,3.779,0,1,0,3.779,3.779A3.779,3.779,0,0,0,282.029,36.06Z" transform="translate(-166.131 -4.327)" fill="#739399"/>
        <path id="Path_710" data-name="Path 710" d="M289.569,36.06a3.779,3.779,0,1,0,3.779,3.779A3.779,3.779,0,0,0,289.569,36.06Z" transform="translate(-164.173 -4.327)" fill="#739399"/>
        <path id="Path_711" data-name="Path 711" d="M297.119,36.06a3.779,3.779,0,1,0,3.779,3.779A3.779,3.779,0,0,0,297.119,36.06Z" transform="translate(-162.212 -4.327)" fill="#739399"/>
        <path id="Path_712" data-name="Path 712" d="M199.039,43.6a3.779,3.779,0,1,0,3.779,3.779,3.779,3.779,0,0,0-3.779-3.779Z" transform="translate(-187.689 -2.368)" fill="#739399"/>
        <path id="Path_713" data-name="Path 713" d="M206.579,43.6a3.779,3.779,0,1,0,3.779,3.779,3.779,3.779,0,0,0-3.779-3.779Z" transform="translate(-185.73 -2.368)" fill="#739399"/>
        <path id="Path_714" data-name="Path 714" d="M214.129,43.6a3.779,3.779,0,1,0,3.779,3.779A3.779,3.779,0,0,0,214.129,43.6Z" transform="translate(-183.769 -2.368)" fill="#739399"/>
        <path id="Path_715" data-name="Path 715" d="M221.669,43.6a3.779,3.779,0,1,0,3.779,3.779,3.779,3.779,0,0,0-3.779-3.779Z" transform="translate(-181.81 -2.368)" fill="#739399"/>
        <path id="Path_716" data-name="Path 716" d="M229.219,43.6A3.779,3.779,0,1,0,233,47.379,3.779,3.779,0,0,0,229.219,43.6Z" transform="translate(-179.849 -2.368)" fill="#739399"/>
        <path id="Path_717" data-name="Path 717" d="M236.779,43.6a3.779,3.779,0,1,0,3.779,3.779,3.779,3.779,0,0,0-3.779-3.779Z" transform="translate(-177.885 -2.368)" fill="#739399"/>
        <path id="Path_718" data-name="Path 718" d="M244.3,43.6a3.779,3.779,0,1,0,3.779,3.779A3.779,3.779,0,0,0,244.3,43.6Z" transform="translate(-175.932 -2.368)" fill="#739399"/>
        <path id="Path_719" data-name="Path 719" d="M251.849,43.6a3.779,3.779,0,1,0,3.779,3.779A3.779,3.779,0,0,0,251.849,43.6Z" transform="translate(-173.971 -2.368)" fill="#739399"/>
        <path id="Path_720" data-name="Path 720" d="M259.389,43.6a3.779,3.779,0,1,0,3.779,3.779A3.779,3.779,0,0,0,259.389,43.6Z" transform="translate(-172.012 -2.368)" fill="#739399"/>
        <path id="Path_721" data-name="Path 721" d="M266.939,43.6a3.779,3.779,0,1,0,3.779,3.779A3.779,3.779,0,0,0,266.939,43.6Z" transform="translate(-170.051 -2.368)" fill="#739399"/>
        <path id="Path_722" data-name="Path 722" d="M274.479,43.6a3.779,3.779,0,1,0,3.779,3.779A3.779,3.779,0,0,0,274.479,43.6Z" transform="translate(-168.093 -2.368)" fill="#739399"/>
        <path id="Path_723" data-name="Path 723" d="M282.029,43.6a3.779,3.779,0,1,0,3.779,3.779A3.779,3.779,0,0,0,282.029,43.6Z" transform="translate(-166.131 -2.368)" fill="#739399"/>
        <path id="Path_724" data-name="Path 724" d="M289.569,43.6a3.779,3.779,0,1,0,3.779,3.779A3.779,3.779,0,0,0,289.569,43.6Z" transform="translate(-164.173 -2.368)" fill="#739399"/>
        <path id="Path_725" data-name="Path 725" d="M297.119,43.6a3.779,3.779,0,1,0,3.779,3.779A3.779,3.779,0,0,0,297.119,43.6Z" transform="translate(-162.212 -2.368)" fill="#739399"/>
        <path id="Path_726" data-name="Path 726" d="M199.039,51.27a3.779,3.779,0,1,0,3.779,3.779,3.779,3.779,0,0,0-3.779-3.779Z" transform="translate(-187.689 -0.376)" fill="#739399"/>
        <path id="Path_727" data-name="Path 727" d="M206.579,51.27a3.779,3.779,0,1,0,3.779,3.779,3.779,3.779,0,0,0-3.779-3.779Z" transform="translate(-185.73 -0.376)" fill="#739399"/>
        <path id="Path_728" data-name="Path 728" d="M214.129,51.27a3.779,3.779,0,1,0,3.779,3.779A3.779,3.779,0,0,0,214.129,51.27Z" transform="translate(-183.769 -0.376)" fill="#739399"/>
        <circle id="Ellipse_51" data-name="Ellipse 51" cx="3.804" cy="3.804" r="3.804" transform="translate(36.054 50.894)" fill="#739399"/>
        <path id="Path_729" data-name="Path 729" d="M229.219,51.27A3.779,3.779,0,1,0,233,55.049,3.779,3.779,0,0,0,229.219,51.27Z" transform="translate(-179.849 -0.376)" fill="#739399"/>
        <circle id="Ellipse_52" data-name="Ellipse 52" cx="3.804" cy="3.804" r="3.804" transform="translate(55.064 50.894)" fill="#739399"/>
        <path id="Path_730" data-name="Path 730" d="M244.3,51.27a3.779,3.779,0,1,0,3.779,3.779A3.779,3.779,0,0,0,244.3,51.27Z" transform="translate(-175.932 -0.376)" fill="#739399"/>
        <path id="Path_731" data-name="Path 731" d="M251.849,51.27a3.779,3.779,0,1,0,3.779,3.779A3.779,3.779,0,0,0,251.849,51.27Z" transform="translate(-173.971 -0.376)" fill="#739399"/>
        <path id="Path_732" data-name="Path 732" d="M259.389,51.27a3.779,3.779,0,1,0,3.779,3.779A3.779,3.779,0,0,0,259.389,51.27Z" transform="translate(-172.012 -0.376)" fill="#739399"/>
        <path id="Path_733" data-name="Path 733" d="M266.939,51.27a3.779,3.779,0,1,0,3.779,3.779A3.779,3.779,0,0,0,266.939,51.27Z" transform="translate(-170.051 -0.376)" fill="#739399"/>
        <circle id="Ellipse_53" data-name="Ellipse 53" cx="3.804" cy="3.804" r="3.804" transform="translate(102.582 50.894)" fill="#739399"/>
        <path id="Path_734" data-name="Path 734" d="M282.029,51.27a3.779,3.779,0,1,0,3.779,3.779A3.779,3.779,0,0,0,282.029,51.27Z" transform="translate(-166.131 -0.376)" fill="#739399"/>
        <path id="Path_735" data-name="Path 735" d="M289.569,51.27a3.779,3.779,0,1,0,3.779,3.779A3.779,3.779,0,0,0,289.569,51.27Z" transform="translate(-164.173 -0.376)" fill="#739399"/>
        <path id="Path_736" data-name="Path 736" d="M297.119,51.27a3.779,3.779,0,1,0,3.779,3.779A3.779,3.779,0,0,0,297.119,51.27Z" transform="translate(-162.212 -0.376)" fill="#739399"/>
        <path id="Path_737" data-name="Path 737" d="M199.039,58.82a3.779,3.779,0,1,0,3.779,3.779,3.779,3.779,0,0,0-3.779-3.779Z" transform="translate(-187.689 1.585)" fill="#739399"/>
        <path id="Path_738" data-name="Path 738" d="M206.579,58.82a3.779,3.779,0,1,0,3.779,3.779,3.779,3.779,0,0,0-3.779-3.779Z" transform="translate(-185.73 1.585)" fill="#739399"/>
        <path id="Path_739" data-name="Path 739" d="M214.129,58.82a3.779,3.779,0,1,0,3.779,3.779A3.779,3.779,0,0,0,214.129,58.82Z" transform="translate(-183.769 1.585)" fill="#739399"/>
        <path id="Path_740" data-name="Path 740" d="M221.669,58.82a3.779,3.779,0,1,0,3.779,3.779,3.779,3.779,0,0,0-3.779-3.779Z" transform="translate(-181.81 1.585)" fill="#739399"/>
        <path id="Path_741" data-name="Path 741" d="M229.219,58.82A3.779,3.779,0,1,0,233,62.6,3.779,3.779,0,0,0,229.219,58.82Z" transform="translate(-179.849 1.585)" fill="#739399"/>
        <path id="Path_742" data-name="Path 742" d="M236.779,58.82a3.779,3.779,0,1,0,3.779,3.779,3.779,3.779,0,0,0-3.779-3.779Z" transform="translate(-177.885 1.585)" fill="#739399"/>
        <path id="Path_743" data-name="Path 743" d="M244.3,58.82a3.779,3.779,0,1,0,3.779,3.779A3.779,3.779,0,0,0,244.3,58.82Z" transform="translate(-175.932 1.585)" fill="#739399"/>
        <path id="Path_744" data-name="Path 744" d="M251.849,58.82a3.779,3.779,0,1,0,3.779,3.779A3.779,3.779,0,0,0,251.849,58.82Z" transform="translate(-173.971 1.585)" fill="#739399"/>
        <path id="Path_745" data-name="Path 745" d="M259.389,58.82a3.779,3.779,0,1,0,3.779,3.779A3.779,3.779,0,0,0,259.389,58.82Z" transform="translate(-172.012 1.585)" fill="#739399"/>
        <path id="Path_746" data-name="Path 746" d="M266.939,58.82a3.779,3.779,0,1,0,3.779,3.779A3.779,3.779,0,0,0,266.939,58.82Z" transform="translate(-170.051 1.585)" fill="#739399"/>
        <path id="Path_747" data-name="Path 747" d="M274.479,58.82a3.779,3.779,0,1,0,3.779,3.779A3.779,3.779,0,0,0,274.479,58.82Z" transform="translate(-168.093 1.585)" fill="#739399"/>
        <path id="Path_748" data-name="Path 748" d="M282.029,58.82a3.779,3.779,0,1,0,3.779,3.779A3.779,3.779,0,0,0,282.029,58.82Z" transform="translate(-166.131 1.585)" fill="#739399"/>
        <path id="Path_749" data-name="Path 749" d="M289.569,58.82a3.779,3.779,0,1,0,3.779,3.779A3.779,3.779,0,0,0,289.569,58.82Z" transform="translate(-164.173 1.585)" fill="#739399"/>
        <path id="Path_750" data-name="Path 750" d="M297.119,58.82A3.779,3.779,0,1,0,300.9,62.6,3.779,3.779,0,0,0,297.119,58.82Z" transform="translate(-162.212 1.585)" fill="#739399"/>
        <path id="Path_751" data-name="Path 751" d="M199.039,66.49a3.779,3.779,0,1,0,3.779,3.779A3.779,3.779,0,0,0,199.039,66.49Z" transform="translate(-187.689 3.578)" fill="#739399"/>
        <path id="Path_752" data-name="Path 752" d="M206.579,66.49a3.779,3.779,0,1,0,3.779,3.779A3.779,3.779,0,0,0,206.579,66.49Z" transform="translate(-185.73 3.578)" fill="#739399"/>
        <path id="Path_753" data-name="Path 753" d="M214.129,66.49a3.779,3.779,0,1,0,3.779,3.779A3.779,3.779,0,0,0,214.129,66.49Z" transform="translate(-183.769 3.578)" fill="#739399"/>
        <circle id="Ellipse_54" data-name="Ellipse 54" cx="3.804" cy="3.804" r="3.804" transform="translate(36.054 70.055)" fill="#739399"/>
        <path id="Path_754" data-name="Path 754" d="M229.219,66.49A3.779,3.779,0,1,0,233,70.269a3.779,3.779,0,0,0-3.779-3.779Z" transform="translate(-179.849 3.578)" fill="#739399"/>
        <circle id="Ellipse_55" data-name="Ellipse 55" cx="3.804" cy="3.804" r="3.804" transform="translate(55.064 70.055)" fill="#739399"/>
        <path id="Path_755" data-name="Path 755" d="M244.3,66.49a3.779,3.779,0,1,0,3.779,3.779A3.779,3.779,0,0,0,244.3,66.49Z" transform="translate(-175.932 3.578)" fill="#739399"/>
        <path id="Path_756" data-name="Path 756" d="M251.849,66.49a3.779,3.779,0,1,0,3.779,3.779A3.779,3.779,0,0,0,251.849,66.49Z" transform="translate(-173.971 3.578)" fill="#739399"/>
        <path id="Path_757" data-name="Path 757" d="M259.389,66.49a3.779,3.779,0,1,0,3.779,3.779A3.779,3.779,0,0,0,259.389,66.49Z" transform="translate(-172.012 3.578)" fill="#739399"/>
        <path id="Path_758" data-name="Path 758" d="M266.939,66.49a3.779,3.779,0,1,0,3.779,3.779A3.779,3.779,0,0,0,266.939,66.49Z" transform="translate(-170.051 3.578)" fill="#739399"/>
        <circle id="Ellipse_56" data-name="Ellipse 56" cx="3.804" cy="3.804" r="3.804" transform="translate(102.582 70.055)" fill="#739399"/>
        <path id="Path_759" data-name="Path 759" d="M282.029,66.49a3.779,3.779,0,1,0,3.779,3.779A3.779,3.779,0,0,0,282.029,66.49Z" transform="translate(-166.131 3.578)" fill="#739399"/>
        <path id="Path_760" data-name="Path 760" d="M289.569,66.49a3.779,3.779,0,1,0,3.779,3.779A3.779,3.779,0,0,0,289.569,66.49Z" transform="translate(-164.173 3.578)" fill="#739399"/>
        <path id="Path_761" data-name="Path 761" d="M297.119,66.49a3.779,3.779,0,1,0,3.779,3.779A3.779,3.779,0,0,0,297.119,66.49Z" transform="translate(-162.212 3.578)" fill="#739399"/>
        <path id="Path_762" data-name="Path 762" d="M199.039,74a3.779,3.779,0,1,0,3.779,3.779A3.779,3.779,0,0,0,199.039,74Z" transform="translate(-187.689 5.529)" fill="#739399"/>
        <path id="Path_763" data-name="Path 763" d="M206.579,74a3.779,3.779,0,1,0,3.779,3.779A3.779,3.779,0,0,0,206.579,74Z" transform="translate(-185.73 5.529)" fill="#739399"/>
        <path id="Path_764" data-name="Path 764" d="M214.129,74a3.779,3.779,0,1,0,3.779,3.779A3.779,3.779,0,0,0,214.129,74Z" transform="translate(-183.769 5.529)" fill="#739399"/>
        <path id="Path_765" data-name="Path 765" d="M221.669,74a3.779,3.779,0,1,0,3.779,3.779A3.779,3.779,0,0,0,221.669,74Z" transform="translate(-181.81 5.529)" fill="#739399"/>
        <path id="Path_766" data-name="Path 766" d="M229.219,74A3.779,3.779,0,1,0,233,77.779,3.779,3.779,0,0,0,229.219,74Z" transform="translate(-179.849 5.529)" fill="#739399"/>
        <path id="Path_767" data-name="Path 767" d="M236.779,74a3.779,3.779,0,1,0,3.779,3.779A3.779,3.779,0,0,0,236.779,74Z" transform="translate(-177.885 5.529)" fill="#739399"/>
        <path id="Path_768" data-name="Path 768" d="M244.3,74a3.779,3.779,0,1,0,3.779,3.779A3.779,3.779,0,0,0,244.3,74Z" transform="translate(-175.932 5.529)" fill="#739399"/>
        <path id="Path_769" data-name="Path 769" d="M251.849,74a3.779,3.779,0,1,0,3.779,3.779A3.779,3.779,0,0,0,251.849,74Z" transform="translate(-173.971 5.529)" fill="#739399"/>
        <path id="Path_770" data-name="Path 770" d="M259.389,74a3.779,3.779,0,1,0,3.779,3.779A3.779,3.779,0,0,0,259.389,74Z" transform="translate(-172.012 5.529)" fill="#739399"/>
        <path id="Path_771" data-name="Path 771" d="M266.939,74a3.779,3.779,0,1,0,3.779,3.779A3.779,3.779,0,0,0,266.939,74Z" transform="translate(-170.051 5.529)" fill="#739399"/>
        <path id="Path_772" data-name="Path 772" d="M274.479,74a3.779,3.779,0,1,0,3.779,3.779A3.779,3.779,0,0,0,274.479,74Z" transform="translate(-168.093 5.529)" fill="#739399"/>
        <path id="Path_773" data-name="Path 773" d="M282.029,74a3.779,3.779,0,1,0,3.779,3.779A3.779,3.779,0,0,0,282.029,74Z" transform="translate(-166.131 5.529)" fill="#739399"/>
        <path id="Path_774" data-name="Path 774" d="M289.569,74a3.779,3.779,0,1,0,3.779,3.779A3.779,3.779,0,0,0,289.569,74Z" transform="translate(-164.173 5.529)" fill="#739399"/>
        <path id="Path_775" data-name="Path 775" d="M297.119,74a3.779,3.779,0,1,0,3.779,3.779A3.779,3.779,0,0,0,297.119,74Z" transform="translate(-162.212 5.529)" fill="#739399"/>
        <path id="Path_776" data-name="Path 776" d="M199.039,81.7a3.779,3.779,0,1,0,3.779,3.779,3.779,3.779,0,0,0-3.779-3.779Z" transform="translate(-187.689 7.529)" fill="#739399"/>
        <path id="Path_777" data-name="Path 777" d="M206.579,81.7a3.779,3.779,0,1,0,3.779,3.779,3.779,3.779,0,0,0-3.779-3.779Z" transform="translate(-185.73 7.529)" fill="#739399"/>
        <path id="Path_778" data-name="Path 778" d="M214.129,81.7a3.779,3.779,0,1,0,3.779,3.779A3.779,3.779,0,0,0,214.129,81.7Z" transform="translate(-183.769 7.529)" fill="#739399"/>
        <path id="Path_779" data-name="Path 779" d="M221.669,81.7a3.779,3.779,0,1,0,3.779,3.779,3.779,3.779,0,0,0-3.779-3.779Z" transform="translate(-181.81 7.529)" fill="#739399"/>
        <path id="Path_780" data-name="Path 780" d="M229.219,81.7A3.779,3.779,0,1,0,233,85.479,3.779,3.779,0,0,0,229.219,81.7Z" transform="translate(-179.849 7.529)" fill="#739399"/>
        <path id="Path_781" data-name="Path 781" d="M236.779,81.7a3.779,3.779,0,1,0,3.779,3.779,3.779,3.779,0,0,0-3.779-3.779Z" transform="translate(-177.885 7.529)" fill="#739399"/>
        <path id="Path_782" data-name="Path 782" d="M244.3,81.7a3.779,3.779,0,1,0,3.779,3.779A3.779,3.779,0,0,0,244.3,81.7Z" transform="translate(-175.932 7.529)" fill="#739399"/>
        <path id="Path_783" data-name="Path 783" d="M251.849,81.7a3.779,3.779,0,1,0,3.779,3.779A3.779,3.779,0,0,0,251.849,81.7Z" transform="translate(-173.971 7.529)" fill="#739399"/>
        <path id="Path_784" data-name="Path 784" d="M259.389,81.7a3.779,3.779,0,1,0,3.779,3.779A3.779,3.779,0,0,0,259.389,81.7Z" transform="translate(-172.012 7.529)" fill="#739399"/>
        <path id="Path_785" data-name="Path 785" d="M266.939,81.7a3.779,3.779,0,1,0,3.779,3.779A3.779,3.779,0,0,0,266.939,81.7Z" transform="translate(-170.051 7.529)" fill="#739399"/>
        <path id="Path_786" data-name="Path 786" d="M274.479,81.7a3.779,3.779,0,1,0,3.779,3.779A3.779,3.779,0,0,0,274.479,81.7Z" transform="translate(-168.093 7.529)" fill="#739399"/>
        <path id="Path_787" data-name="Path 787" d="M282.029,81.7a3.779,3.779,0,1,0,3.779,3.779A3.779,3.779,0,0,0,282.029,81.7Z" transform="translate(-166.131 7.529)" fill="#739399"/>
        <path id="Path_788" data-name="Path 788" d="M289.569,81.7a3.779,3.779,0,1,0,3.779,3.779A3.779,3.779,0,0,0,289.569,81.7Z" transform="translate(-164.173 7.529)" fill="#739399"/>
        <path id="Path_789" data-name="Path 789" d="M297.119,81.7a3.779,3.779,0,1,0,3.779,3.779A3.779,3.779,0,0,0,297.119,81.7Z" transform="translate(-162.212 7.529)" fill="#739399"/>
        <path id="Path_790" data-name="Path 790" d="M199.039,89.25a3.779,3.779,0,1,0,3.779,3.779,3.779,3.779,0,0,0-3.779-3.779Z" transform="translate(-187.689 9.49)" fill="#739399"/>
        <path id="Path_791" data-name="Path 791" d="M206.579,89.25a3.779,3.779,0,1,0,3.779,3.779,3.779,3.779,0,0,0-3.779-3.779Z" transform="translate(-185.73 9.49)" fill="#739399"/>
        <path id="Path_792" data-name="Path 792" d="M214.129,89.25a3.779,3.779,0,1,0,3.779,3.779A3.779,3.779,0,0,0,214.129,89.25Z" transform="translate(-183.769 9.49)" fill="#739399"/>
        <path id="Path_793" data-name="Path 793" d="M221.669,89.25a3.779,3.779,0,1,0,3.779,3.779,3.779,3.779,0,0,0-3.779-3.779Z" transform="translate(-181.81 9.49)" fill="#739399"/>
        <path id="Path_794" data-name="Path 794" d="M229.219,89.25A3.779,3.779,0,1,0,233,93.029,3.779,3.779,0,0,0,229.219,89.25Z" transform="translate(-179.849 9.49)" fill="#739399"/>
        <path id="Path_795" data-name="Path 795" d="M236.779,89.25a3.779,3.779,0,1,0,3.779,3.779,3.779,3.779,0,0,0-3.779-3.779Z" transform="translate(-177.885 9.49)" fill="#739399"/>
        <path id="Path_796" data-name="Path 796" d="M244.3,89.25a3.779,3.779,0,1,0,3.779,3.779A3.779,3.779,0,0,0,244.3,89.25Z" transform="translate(-175.932 9.49)" fill="#739399"/>
        <path id="Path_797" data-name="Path 797" d="M251.849,89.25a3.779,3.779,0,1,0,3.779,3.779A3.779,3.779,0,0,0,251.849,89.25Z" transform="translate(-173.971 9.49)" fill="#739399"/>
        <path id="Path_798" data-name="Path 798" d="M259.389,89.25a3.779,3.779,0,1,0,3.779,3.779A3.779,3.779,0,0,0,259.389,89.25Z" transform="translate(-172.012 9.49)" fill="#739399"/>
        <path id="Path_799" data-name="Path 799" d="M266.939,89.25a3.779,3.779,0,1,0,3.779,3.779A3.779,3.779,0,0,0,266.939,89.25Z" transform="translate(-170.051 9.49)" fill="#739399"/>
        <path id="Path_800" data-name="Path 800" d="M274.479,89.25a3.779,3.779,0,1,0,3.779,3.779A3.779,3.779,0,0,0,274.479,89.25Z" transform="translate(-168.093 9.49)" fill="#739399"/>
        <path id="Path_801" data-name="Path 801" d="M282.029,89.25a3.779,3.779,0,1,0,3.779,3.779A3.779,3.779,0,0,0,282.029,89.25Z" transform="translate(-166.131 9.49)" fill="#739399"/>
        <path id="Path_802" data-name="Path 802" d="M289.569,89.25a3.779,3.779,0,1,0,3.779,3.779A3.779,3.779,0,0,0,289.569,89.25Z" transform="translate(-164.173 9.49)" fill="#739399"/>
        <path id="Path_803" data-name="Path 803" d="M297.119,89.25a3.779,3.779,0,1,0,3.779,3.779A3.779,3.779,0,0,0,297.119,89.25Z" transform="translate(-162.212 9.49)" fill="#739399"/>
        <path id="Path_804" data-name="Path 804" d="M199.039,96.92a3.779,3.779,0,1,0,3.779,3.779,3.779,3.779,0,0,0-3.779-3.779Z" transform="translate(-187.689 11.482)" fill="#739399"/>
        <path id="Path_805" data-name="Path 805" d="M206.579,96.92a3.779,3.779,0,1,0,3.779,3.779,3.779,3.779,0,0,0-3.779-3.779Z" transform="translate(-185.73 11.482)" fill="#739399"/>
        <path id="Path_806" data-name="Path 806" d="M214.129,96.92a3.779,3.779,0,1,0,3.779,3.779A3.779,3.779,0,0,0,214.129,96.92Z" transform="translate(-183.769 11.482)" fill="#739399"/>
        <path id="Path_807" data-name="Path 807" d="M221.669,96.92a3.779,3.779,0,1,0,3.779,3.779,3.779,3.779,0,0,0-3.779-3.779Z" transform="translate(-181.81 11.482)" fill="#739399"/>
        <path id="Path_808" data-name="Path 808" d="M229.219,96.92A3.779,3.779,0,1,0,233,100.7,3.779,3.779,0,0,0,229.219,96.92Z" transform="translate(-179.849 11.482)" fill="#739399"/>
        <path id="Path_809" data-name="Path 809" d="M236.779,96.92a3.779,3.779,0,1,0,3.779,3.779,3.779,3.779,0,0,0-3.779-3.779Z" transform="translate(-177.885 11.482)" fill="#739399"/>
        <path id="Path_810" data-name="Path 810" d="M244.3,96.92a3.779,3.779,0,1,0,3.779,3.779A3.779,3.779,0,0,0,244.3,96.92Z" transform="translate(-175.932 11.482)" fill="#739399"/>
        <path id="Path_811" data-name="Path 811" d="M251.849,96.92a3.779,3.779,0,1,0,3.779,3.779A3.779,3.779,0,0,0,251.849,96.92Z" transform="translate(-173.971 11.482)" fill="#739399"/>
        <path id="Path_812" data-name="Path 812" d="M259.389,96.92a3.779,3.779,0,1,0,3.779,3.779A3.779,3.779,0,0,0,259.389,96.92Z" transform="translate(-172.012 11.482)" fill="#739399"/>
        <path id="Path_813" data-name="Path 813" d="M266.939,96.92a3.779,3.779,0,1,0,3.779,3.779A3.779,3.779,0,0,0,266.939,96.92Z" transform="translate(-170.051 11.482)" fill="#739399"/>
        <path id="Path_814" data-name="Path 814" d="M274.479,96.92a3.779,3.779,0,1,0,3.779,3.779A3.779,3.779,0,0,0,274.479,96.92Z" transform="translate(-168.093 11.482)" fill="#739399"/>
        <path id="Path_815" data-name="Path 815" d="M282.029,96.92a3.779,3.779,0,1,0,3.779,3.779A3.779,3.779,0,0,0,282.029,96.92Z" transform="translate(-166.131 11.482)" fill="#739399"/>
        <path id="Path_816" data-name="Path 816" d="M289.569,96.92a3.779,3.779,0,1,0,3.779,3.779A3.779,3.779,0,0,0,289.569,96.92Z" transform="translate(-164.173 11.482)" fill="#739399"/>
        <path id="Path_817" data-name="Path 817" d="M297.119,96.92A3.779,3.779,0,1,0,300.9,100.7,3.779,3.779,0,0,0,297.119,96.92Z" transform="translate(-162.212 11.482)" fill="#739399"/>
        <path id="Path_818" data-name="Path 818" d="M438.09,63.952l-4.434-.567a20.16,20.16,0,0,0-.592-4.951l4.17-1.7a.353.353,0,0,0,.189-.479l-.479-1.159-1.26-3.149a.378.378,0,0,0-.315-.214h0a.252.252,0,0,0-.139,0L431.1,53.445a19.187,19.187,0,0,0-3.086-4.006l2.771-3.616a.39.39,0,0,0,0-.4h0a.132.132,0,0,0-.088-.113l-1.071-.819-2.633-2a.378.378,0,0,0-.516.063L423.767,46.1a19.792,19.792,0,0,0-4.573-1.965l.579-4.51a.252.252,0,0,0,0-.088v-.063a.34.34,0,0,0-.29-.239l-4.623-.6a.365.365,0,0,0-.3.113.328.328,0,0,0-.113.2l-.517,4.069v.378a19.526,19.526,0,0,0-4.951.592l-1.751-4.195a.353.353,0,0,0-.315-.227.378.378,0,0,0-.164,0l-4.308,1.8a.365.365,0,0,0-.2.227.353.353,0,0,0,0,.252l1.4,3.553.277.655a20.153,20.153,0,0,0-3.993,3L396.3,46.29a.365.365,0,0,0-.39,0,.314.314,0,0,0-.126.1l-2.822,3.7a.328.328,0,0,0-.063.3.529.529,0,0,0,.126.214l3.049,2.318.5.378a19.882,19.882,0,0,0-1.953,4.6l-4.51-.579a.353.353,0,0,0-.365.176.442.442,0,0,0,0,.139l-.592,4.623a.315.315,0,0,0,.076.277.4.4,0,0,0,.239.126l3.653.479.781.1A19.665,19.665,0,0,0,394.5,68.2L390.22,69.86a.353.353,0,0,0-.227.328.636.636,0,0,0,0,.151l1.8,4.3a.4.4,0,0,0,.239.214.391.391,0,0,0,.239,0l3.578-1.5.668-.239a19.575,19.575,0,0,0,2.986,3.981l-2.8,3.578a.378.378,0,0,0,0,.378.444.444,0,0,0,.113.126l3.7,2.834a.353.353,0,0,0,.315,0,.34.34,0,0,0,.2-.126l2.52-3.288.2-.265a19.589,19.589,0,0,0,4.586,1.965l-.579,4.5a.353.353,0,0,0,.176.365h.138l4.623.592h0a.353.353,0,0,0,.365-.176.453.453,0,0,0,0-.139l.391-3.049L413.639,83a20.156,20.156,0,0,0,4.951-.592l1.751,4.195a.365.365,0,0,0,.479.189l3.149-1.26,1.146-.479a.378.378,0,0,0,.2-.479l-1.726-4.132a20.068,20.068,0,0,0,3.993-3L431.2,80.2a.365.365,0,0,0,.517,0l1.625-2.142,1.2-1.562a.365.365,0,0,0-.076-.516l-3.553-2.709a20.054,20.054,0,0,0,1.965-4.586l4.51.579a.365.365,0,0,0,.353-.176h0a.311.311,0,0,0,0-.088l.592-4.623a.365.365,0,0,0-.239-.428Zm-18.078.113a5.6,5.6,0,1,0-.025,0Z" transform="translate(-137.323 -3.659)" fill="#527980"/>
        <path id="Path_819" data-name="Path 819" d="M409.767,34.129l-3.175-.416a14.417,14.417,0,0,0-.428-3.54l3-1.26a.252.252,0,0,0,.138-.34l-.34-.819-.945-2.255a.29.29,0,0,0-.214-.164h-.1l-2.948,1.26a14.007,14.007,0,0,0-2.142-2.86l1.978-2.583a.265.265,0,0,0,0-.29h0a.078.078,0,0,0-.063-.076l-.768-.592-1.89-1.436a.265.265,0,0,0-.365,0l-1.94,2.52a14.022,14.022,0,0,0-3.275-1.4l.4-3.225h0a.265.265,0,0,0-.214-.176L393.151,16a.227.227,0,0,0-.214.076.327.327,0,0,0-.088.139l-.365,2.91V19.4a14.336,14.336,0,0,0-3.59.378l-1.26-3a.239.239,0,0,0-.214-.151.214.214,0,0,0-.126,0l-3.074,1.26a.252.252,0,0,0-.151.164.29.29,0,0,0,0,.176l1.033,2.52.2.466a14.073,14.073,0,0,0-2.86,2.154l-2.52-1.978a.277.277,0,0,0-.277,0,.163.163,0,0,0-.088.076l-2,2.671a.35.35,0,0,0,.088.365l2.179,1.663.365.277a13.6,13.6,0,0,0-1.4,3.288l-3.238-.416a.252.252,0,0,0-.252.126v.1l-.416,3.313a.239.239,0,0,0,0,.189.327.327,0,0,0,.164.1l2.62.34.567.063a14.259,14.259,0,0,0,.416,3.54l-3,1.26a.265.265,0,0,0-.164.239.239.239,0,0,0,0,.1l1.26,3.074a.214.214,0,0,0,.176.151.239.239,0,0,0,.164,0l2.52-1.071.391-.164a14.345,14.345,0,0,0,2.154,2.847l-1.978,2.6a.227.227,0,0,0,0,.265.2.2,0,0,0,.076.1L382.9,48.5a.265.265,0,0,0,.239,0,.176.176,0,0,0,.126-.088l1.8-2.343.139-.189a14.675,14.675,0,0,0,3.288,1.4l-.416,3.225a.252.252,0,0,0,.126.252.139.139,0,0,0,.1,0l3.3.428h0a.252.252,0,0,0,.252-.126v-.1l.277-2.179.126-1a14.261,14.261,0,0,0,3.565-.29l1.26,3a.252.252,0,0,0,.34.139l2.255-.932.819-.353a.265.265,0,0,0,.151-.34l-1.26-2.948a14.286,14.286,0,0,0,2.847-2.142l2.6,1.978a.264.264,0,0,0,.365,0l1.159-1.537.857-1.121a.265.265,0,0,0,0-.365l-2.519-1.94a14.576,14.576,0,0,0,1.4-3.275l3.225.4a.239.239,0,0,0,.252-.126h0a.175.175,0,0,0,0-.076l.428-3.3a.265.265,0,0,0-.227-.428Zm-12.938.076a4.5,4.5,0,1,1-.9-3.327,4.5,4.5,0,0,1,.9,3.327Z" transform="translate(-141.035 -9.538)" fill="#527980"/>
        <path id="Path_820" data-name="Path 820" d="M275.4,34.128l-3.175-.416a14.414,14.414,0,0,0-.428-3.54l3-1.26a.264.264,0,0,0,.151-.34l-.353-.819-.945-2.255a.29.29,0,0,0-.214-.164h-.1l-2.948,1.26a14.006,14.006,0,0,0-2.142-2.86l1.978-2.582a.265.265,0,0,0,0-.29h0a.126.126,0,0,0-.063-.076l-.768-.592-1.89-1.436a.265.265,0,0,0-.365,0l-1.94,2.52a14.021,14.021,0,0,0-3.275-1.4l.4-3.225h0a.239.239,0,0,0-.2-.176L258.781,16a.265.265,0,0,0-.29.214l-.378,2.91V19.4a14.336,14.336,0,0,0-3.54.416l-1.26-3a.277.277,0,0,0-.227-.151.214.214,0,0,0-.126,0l-3.074,1.26a.252.252,0,0,0-.151.164.29.29,0,0,0,0,.176l1.033,2.52.2.466a14.069,14.069,0,0,0-2.86,2.154l-2.583-1.978a.277.277,0,0,0-.277,0,.164.164,0,0,0-.088.076l-2.028,2.646a.35.35,0,0,0,.088.365l2.179,1.663.365.277a14.123,14.123,0,0,0-1.4,3.288l-3.225-.428a.265.265,0,0,0-.265.126v.1l-.416,3.313a.239.239,0,0,0,0,.189.315.315,0,0,0,.176.1l2.608.34.567.063a14.262,14.262,0,0,0,.416,3.54l-3,1.26a.265.265,0,0,0-.164.239.239.239,0,0,0,0,.1l1.26,3.074a.286.286,0,0,0,.34.151l2.52-1.071.391-.164a14.84,14.84,0,0,0,2.154,2.847l-1.978,2.6a.252.252,0,0,0,0,.265.2.2,0,0,0,.076.1l2.646,2.016a.265.265,0,0,0,.239,0,.176.176,0,0,0,.126-.088l1.8-2.343.139-.189a14.677,14.677,0,0,0,3.288,1.4l-.328,3.263a.252.252,0,0,0,.126.252.138.138,0,0,0,.1,0l3.313.428h0a.252.252,0,0,0,.252-.126.164.164,0,0,0,0-.1l.277-2.179.126-1a14.261,14.261,0,0,0,3.54-.428l1.26,3a.252.252,0,0,0,.34.139l2.255-.932.819-.353a.265.265,0,0,0,.151-.34l-1.26-2.948a14.286,14.286,0,0,0,2.847-2.142l2.6,1.978a.265.265,0,0,0,.365,0l1.159-1.537.857-1.121a.252.252,0,0,0,0-.365l-2.52-1.94a14.019,14.019,0,0,0,1.4-3.275l3.225.4a.239.239,0,0,0,.252-.126h0a.175.175,0,0,0,0-.076l.428-3.3a.265.265,0,0,0-.252-.328Zm-12.938.076a4.5,4.5,0,1,1-.9-3.327,4.5,4.5,0,0,1,.9,3.327Z" transform="translate(-175.952 -9.538)" fill="#527980"/>
        <path id="Path_821" data-name="Path 821" d="M393.815,56.18l-2.305-.29a10.255,10.255,0,0,0-.3-2.52l2.167-.907a.176.176,0,0,0,.1-.239l-.239-.6-.68-1.625a.189.189,0,0,0-.164-.113H392.3l-2.142.894a10.216,10.216,0,0,0-1.55-2.053l1.436-1.953a.214.214,0,0,0,0-.214h0l-.554-.428-1.373-1.046a.2.2,0,0,0-.265,0l-1.4,1.839a10.254,10.254,0,0,0-2.381-1.008l.3-2.343v-.076h0a.164.164,0,0,0-.151-.126l-2.394-.315a.214.214,0,0,0-.164,0,.151.151,0,0,0,0,.1l-.265,2.1v.2a10.179,10.179,0,0,0-2.52.3L377.98,43.6a.164.164,0,0,0-.164-.113h-.088l-2.23.932a.2.2,0,0,0-.1.126.215.215,0,0,0,0,.126l.756,1.8.139.34a9.954,9.954,0,0,0-2.066,1.55l-1.877-1.436a.227.227,0,0,0-.2,0h-.063l-1.461,1.927a.164.164,0,0,0,0,.151.177.177,0,0,0,.063.113l1.575,1.2.265.2a10.856,10.856,0,0,0-1.02,2.381l-2.331-.3a.189.189,0,0,0-.189.088s0,0,0,.076l-.3,2.394a.214.214,0,0,0,0,.151.391.391,0,0,0,.126,0l1.89.239h.4a10.19,10.19,0,0,0,.315,2.52l-2.331,1.184a.2.2,0,0,0-.113.176.164.164,0,0,0,0,.076l.932,2.23a.2.2,0,0,0,.126.1h.126l1.852-.781.277-.113A10.366,10.366,0,0,0,373.848,63l-1.436,1.877a.151.151,0,0,0,0,.189.262.262,0,0,0,0,.076l1.915,1.461a.214.214,0,0,0,.176,0,.151.151,0,0,0,.088,0l1.26-1.7.1-.139a10.153,10.153,0,0,0,2.368,1.008l-.29,2.343a.189.189,0,0,0,.088.189h.076l2.394.3h0a.189.189,0,0,0,.189-.088v-.076l.2-1.575.088-.718a10.249,10.249,0,0,0,2.517-.314l.909,2.179a.189.189,0,0,0,.239.1l1.638-.68.592-.252a.176.176,0,0,0,.1-.252l-.882-2.129a10.279,10.279,0,0,0,2.053-1.562l1.877,1.436a.189.189,0,0,0,.265,0l.844-1.109.63-.806a.214.214,0,0,0,0-.277l-1.839-1.4a10.077,10.077,0,0,0,1.008-2.381l2.343.3a.164.164,0,0,0,.176-.088h0l.315-2.394a.2.2,0,0,0-.038-.34Zm-9.373.063a3.25,3.25,0,1,1-.645-2.411A3.263,3.263,0,0,1,384.442,56.243Z" transform="translate(-142.644 -2.514)" fill="#527980"/>
        <rect id="Rectangle_259" data-name="Rectangle 259" width="3.162" height="11.665" transform="translate(130.36 103.023)" fill="#39666e"/>
        <rect id="Rectangle_260" data-name="Rectangle 260" width="3.187" height="22.373" transform="translate(142.038 92.315)" fill="#39666e"/>
        <rect id="Rectangle_261" data-name="Rectangle 261" width="3.187" height="40.665" transform="translate(138.851 74.023)" fill="#f68b2e"/>
        <rect id="Rectangle_262" data-name="Rectangle 262" width="3.187" height="26.505" transform="translate(127.185 88.183)" fill="#f68b2e"/>
        <rect id="Rectangle_263" data-name="Rectangle 263" width="3.187" height="21.794" transform="translate(117.901 92.895)" fill="#39666e"/>
        <rect id="Rectangle_264" data-name="Rectangle 264" width="3.187" height="38.02" transform="translate(114.714 76.669)" fill="#f68b2e"/>
        <rect id="Rectangle_265" data-name="Rectangle 265" width="3.187" height="67.813" transform="translate(107.017 46.876)" fill="#39666e"/>
        <rect id="Rectangle_266" data-name="Rectangle 266" width="3.187" height="53.25" transform="translate(103.842 61.438)" fill="#f68b2e"/>
        <rect id="Rectangle_267" data-name="Rectangle 267" width="3.187" height="60.204" transform="translate(95.351 54.485)" fill="#39666e"/>
        <rect id="Rectangle_268" data-name="Rectangle 268" width="3.187" height="43.21" transform="translate(92.164 71.479)" fill="#f68b2e"/>
        <rect id="Rectangle_269" data-name="Rectangle 269" width="3.187" height="55.404" transform="translate(83.686 59.284)" fill="#39666e"/>
        <rect id="Rectangle_270" data-name="Rectangle 270" width="3.187" height="63.593" transform="translate(80.499 51.096)" fill="#f68b2e"/>
        <rect id="Rectangle_271" data-name="Rectangle 271" width="3.187" height="69.917" transform="translate(72.008 44.772)" fill="#39666e"/>
        <rect id="Rectangle_272" data-name="Rectangle 272" width="3.187" height="27.866" transform="translate(68.821 86.823)" fill="#f68b2e"/>
        <rect id="Rectangle_273" data-name="Rectangle 273" width="3.187" height="25.624" transform="translate(60.343 89.065)" fill="#39666e"/>
        <rect id="Rectangle_274" data-name="Rectangle 274" width="3.187" height="16.969" transform="translate(57.155 97.72)" fill="#f68b2e"/>
        <rect id="Rectangle_275" data-name="Rectangle 275" width="3.187" height="27.627" transform="translate(48.665 87.062)" fill="#39666e"/>
        <rect id="Rectangle_276" data-name="Rectangle 276" width="3.187" height="22.033" transform="translate(45.49 92.655)" fill="#f68b2e"/>
        <rect id="Rectangle_277" data-name="Rectangle 277" width="3.187" height="50.982" transform="translate(36.999 63.706)" fill="#39666e"/>
        <rect id="Rectangle_278" data-name="Rectangle 278" width="3.187" height="42.051" transform="translate(33.812 72.638)" fill="#f68b2e"/>
        <rect id="Rectangle_279" data-name="Rectangle 279" width="3.187" height="28.735" transform="translate(25.321 85.953)" fill="#39666e"/>
        <rect id="Rectangle_280" data-name="Rectangle 280" width="3.187" height="36.054" transform="translate(22.147 78.634)" fill="#f68b2e"/>
        <rect id="Rectangle_281" data-name="Rectangle 281" width="3.187" height="22.865" transform="translate(13.656 91.824)" fill="#39666e"/>
        <rect id="Rectangle_282" data-name="Rectangle 282" width="3.187" height="17.611" transform="translate(10.469 97.077)" fill="#f68b2e"/>
        <rect id="Rectangle_283" data-name="Rectangle 283" width="144.343" height="0.794" transform="translate(4.989 114.298)"/>
        <path id="Path_822" data-name="Path 822" d="M219.448,43.248h3.779c0,1.4-.2,7.193-3.464,11.035-5.039,5.971-14.613,7.76-14.613,7.76s9.5,3.5,20.647-3.553c6.551-4.132,8.818-13.744,9.2-15.218h4.271L230.5,25.8Z" transform="translate(-185.12 -6.992)" fill="#20535c"/>
        <path id="Path_823" data-name="Path 823" d="M397.3,68.3c-4.082-4.812-4.346-12.094-4.346-13.857h4.724L383.82,32.54l-11.01,22h5.379c.4,1.839,3.326,13.857,11.527,19.111,14.008,8.818,25.938,4.46,25.938,4.46S403.649,75.8,397.3,68.3Z" transform="translate(-141.569 -5.241)" fill="#20535c"/>
        <rect id="Rectangle_284" data-name="Rectangle 284" width="137.2" height="95.792" rx="4.51" transform="translate(85.046 19.438)" fill="#d1d1d1"/>
        <rect id="Rectangle_285" data-name="Rectangle 285" width="45.855" height="15.545" transform="translate(130.725 115.23)" fill="#a9a9a9"/>
        <path id="Path_824" data-name="Path 824" d="M344.7,114.68H291.981a7.307,7.307,0,0,0-6.185,3.414l-2.016,3.187H352.9l-2.016-3.187a7.307,7.307,0,0,0-6.185-3.414Z" transform="translate(-164.695 16.096)" fill="#ccc"/>
        <path id="Path_825" data-name="Path 825" d="M387.839,26.58H262.669A5.682,5.682,0,0,0,257,32.262v73.948H393.533V32.262a5.682,5.682,0,0,0-5.694-5.682Z" transform="translate(-171.651 -6.789)" fill="#353432"/>
        <rect id="Rectangle_286" data-name="Rectangle 286" width="127.022" height="69.778" transform="translate(90.098 24.087)" fill="#fff"/>
        <rect id="Rectangle_287" data-name="Rectangle 287" width="127.022" height="20.118" transform="translate(90.098 24.087)" fill="#39666e"/>
        <rect id="Rectangle_288" data-name="Rectangle 288" width="29.05" height="4.472" transform="translate(102.935 52.003)" fill="#598193"/>
        <rect id="Rectangle_289" data-name="Rectangle 289" width="29.05" height="30.852" transform="translate(102.935 59.876)" fill="#c7c7c7"/>
        <rect id="Rectangle_290" data-name="Rectangle 290" width="29.05" height="4.472" transform="translate(139.115 52.003)" fill="#598193"/>
        <rect id="Rectangle_291" data-name="Rectangle 291" width="29.05" height="30.852" transform="translate(139.115 59.876)" fill="#c7c7c7"/>
        <rect id="Rectangle_292" data-name="Rectangle 292" width="29.05" height="4.472" transform="translate(175.308 52.003)" fill="#598193"/>
        <rect id="Rectangle_293" data-name="Rectangle 293" width="29.05" height="30.852" transform="translate(175.308 59.876)" fill="#c7c7c7"/>
        <path id="Path_826" data-name="Path 826" d="M349.437,36H287.255a2.255,2.255,0,1,0,0,4.51h62.182a2.255,2.255,0,1,0,0-4.51Z" transform="translate(-164.378 -4.342)" fill="#003d59"/>
        <g id="Group_145" data-name="Group 145" transform="translate(120.975 0)" clip-path="url(#clip-path)">
          <circle id="Ellipse_57" data-name="Ellipse 57" cx="15.697" cy="15.697" r="15.697" transform="translate(18.619 8.579)" fill="#f68b2e"/>
          <circle id="Ellipse_58" data-name="Ellipse 58" cx="15.697" cy="15.697" r="15.697" transform="translate(16.969 7.37)" fill="#ffb136"/>
          <path id="Path_827" data-name="Path 827" d="M316.643,31.348a4.385,4.385,0,0,0-.907-.756,6.955,6.955,0,0,0-1.109-.542,9.445,9.445,0,0,0-1.26-.378l-1.26-.29c-.567-.139-1.046-.265-1.436-.4a3.477,3.477,0,0,1-.92-.441,1.486,1.486,0,0,1-.491-.567,1.84,1.84,0,0,1-.139-.781,1.9,1.9,0,0,1,.781-1.613,3.691,3.691,0,0,1,2.242-.592c1.978,0,3.061.869,3.238,2.608h1.675a4.675,4.675,0,0,0-.4-1.814,3.981,3.981,0,0,0-1.033-1.361,4.573,4.573,0,0,0-1.562-.857,6.173,6.173,0,0,0-1.99-.3,5.681,5.681,0,0,0-1.9.3,4.472,4.472,0,0,0-1.461.831,3.97,3.97,0,0,0-1.046,4.283,2.959,2.959,0,0,0,.756,1.1,4.574,4.574,0,0,0,1.26.819,10.682,10.682,0,0,0,1.89.63c.756.176,1.4.34,1.915.5a5.682,5.682,0,0,1,1.26.554,1.839,1.839,0,0,1,.68.718,2.053,2.053,0,0,1,.214,1.008,2.254,2.254,0,0,1-.227,1.02,2.294,2.294,0,0,1-.655.781,3.478,3.478,0,0,1-1.02.479,4.9,4.9,0,0,1-1.335.176,5.039,5.039,0,0,1-1.411-.189,3.4,3.4,0,0,1-1.172-.579,3.063,3.063,0,0,1-.831-1,3.491,3.491,0,0,1-.4-1.424h-1.65a5.58,5.58,0,0,0,.378,1.978,4.271,4.271,0,0,0,1.046,1.55,4.837,4.837,0,0,0,1.726,1.008,7.268,7.268,0,0,0,2.406.365,5.644,5.644,0,0,0,1.94-.328,4.686,4.686,0,0,0,1.524-.894A4.006,4.006,0,0,0,317.1,35.53a4.472,4.472,0,0,0,.139-3.175,3.39,3.39,0,0,0-.592-1.008Z" transform="translate(-279.656 -7.652)" fill="#f68b2e"/>
          <rect id="Rectangle_294" data-name="Rectangle 294" width="1.537" height="19.778" transform="translate(30.625 13.177)" fill="#f68b2e"/>
          <rect id="Rectangle_295" data-name="Rectangle 295" width="1.537" height="19.778" transform="translate(33.346 13.177)" fill="#f68b2e"/>
        </g>
        <rect id="Rectangle_297" data-name="Rectangle 297" width="69.841" height="27.904" transform="translate(206.588 107.458)" fill="#72bd7c"/>
        <path id="Path_828" data-name="Path 828" d="M355.12,121.189h65.1V98.06h-65.1Zm.718-22.411h63.668v21.706H355.838Z" transform="translate(-146.164 11.778)" fill="#549c63"/>
        <path id="Path_829" data-name="Path 829" d="M382.6,99.82c-4.283,0-7.76,4.208-7.76,9.36s3.477,9.36,7.76,9.36,7.748-4.2,7.748-9.36S386.808,99.82,382.6,99.82Zm0,18c-3.88,0-7.042-3.867-7.042-8.642s3.162-8.642,7.042-8.642,7.029,3.88,7.029,8.642S386.379,117.822,382.6,117.822Z" transform="translate(-141.041 12.236)" fill="#549c63"/>
        <path id="Path_830" data-name="Path 830" d="M382.338,101c-3.59,0-6.488,3.527-6.488,7.886s2.9,7.9,6.488,7.9,6.475-3.54,6.475-7.9S385.853,101,382.338,101Z" transform="translate(-140.779 12.542)" fill="#56a96f"/>
        <path id="Path_831" data-name="Path 831" d="M407.425,104.425V98.63H401.63a5.8,5.8,0,0,0,5.795,5.795Z" transform="translate(-134.082 11.927)" fill="#549c63"/>
        <path id="Path_832" data-name="Path 832" d="M355.66,104.425a5.8,5.8,0,0,0,5.795-5.795H355.66Z" transform="translate(-146.023 11.927)" fill="#549c63"/>
        <path id="Path_833" data-name="Path 833" d="M403,116.717h4.107V112.61A4.107,4.107,0,0,0,403,116.717Z" transform="translate(-133.726 15.558)" fill="#549c63"/>
        <path id="Path_834" data-name="Path 834" d="M355.66,112.61V116.7h4.107a4.107,4.107,0,0,0-4.107-4.094Z" transform="translate(-146.023 15.558)" fill="#549c63"/>
        <path id="Path_835" data-name="Path 835" d="M394.684,114.38H372.6a2.053,2.053,0,0,0-2.041,2.041h26.165a2.053,2.053,0,0,0-2.041-2.041Z" transform="translate(-142.153 16.018)" fill="#549c63"/>
        <path id="Path_836" data-name="Path 836" d="M372.6,100.661h22.084a2.041,2.041,0,0,0,2.041-2.041H370.56A2.041,2.041,0,0,0,372.6,100.661Z" transform="translate(-142.153 11.924)" fill="#549c63"/>
        <path id="Path_837" data-name="Path 837" d="M214.331,91.492l.441-.693-.819-.05.2-.806-.794.2-.063-.819-.693.441-.3-.756-.529.63-.517-.63-.315.756-.693-.441-.05.819-.794-.2.2.806-.819.05.441.693-.768.3.63.529-.63.529.768.3-.441.693.819.05-.2.794.794-.2.05.819.693-.428.315.756.517-.63.529.63.3-.756.693.428.063-.819.794.2-.2-.794.819-.05-.441-.693.756-.3-.63-.529.63-.529Z" transform="translate(54.15 29.584)" fill="#56a96f"/>
        <path id="Path_838" data-name="Path 838" d="M176.28,91.492l.441-.693-.819-.05.2-.806-.794.2-.063-.819-.693.441-.3-.756-.529.63-.516-.63-.3.756-.693-.441-.063.819-.794-.2.2.806-.819.05.441.693-.768.3.63.529-.63.529.768.3-.441.693.819.05-.2.794.794-.2.063.819.693-.428.3.756.516-.63.529.63.3-.756.693.428.063-.819.794.2-.2-.794.819-.05-.441-.693.768-.3-.63-.529.63-.529Z" transform="translate(44.266 29.584)" fill="#56a96f"/>
        <rect id="Rectangle_298" data-name="Rectangle 298" width="69.841" height="27.904" transform="matrix(0.839, -0.544, 0.544, 0.839, 201.697, 117.163)" fill="#81ce8d"/>
        <path id="Path_839" data-name="Path 839" d="M352,111.737l12.6,19.4L419.145,95.7l-12.6-19.4Zm12.749,18.355-11.817-18.2,53.414-34.656,11.817,18.2Z" transform="translate(-146.974 6.126)" fill="#5eab6f"/>
        <path id="Path_840" data-name="Path 840" d="M375.233,92.057c-3.59,2.331-4.22,7.748-1.411,12.069s8.012,5.959,11.6,3.641,4.208-7.748,1.4-12.069S378.823,89.739,375.233,92.057Zm9.8,15.117c-3.25,2.116-8.012.579-10.607-3.414s-2.053-8.969,1.2-11.086,8.012-.579,10.607,3.427,2.053,8.957-1.2,11.061Z" transform="translate(-141.762 9.946)" fill="#5eab6f"/>
        <path id="Path_841" data-name="Path 841" d="M375.751,93c-3,1.953-3.5,6.488-1.134,10.154s6.727,5.039,9.725,3.086,3.515-6.488,1.146-10.078S378.762,91.044,375.751,93Z" transform="translate(-141.487 10.241)" fill="#6ab57e"/>
        <path id="Path_842" data-name="Path 842" d="M391.28,80.242a5.782,5.782,0,0,0,8.012,1.7l-3.149-4.863Z" transform="translate(-136.771 6.329)" fill="#5eab6f"/>
        <path id="Path_843" data-name="Path 843" d="M352.72,105.262l3.162,4.863a5.795,5.795,0,0,0,1.7-8.025Z" transform="translate(-146.787 12.828)" fill="#5eab6f"/>
        <path id="Path_844" data-name="Path 844" d="M401.926,94.479l3.439-2.23-2.23-3.439a4.094,4.094,0,0,0-1.209,5.669Z" transform="translate(-134.177 9.376)" fill="#5eab6f"/>
        <path id="Path_845" data-name="Path 845" d="M360.33,116.466l2.23,3.439,3.439-2.23h0a4.094,4.094,0,0,0-5.669-1.209Z" transform="translate(-144.81 16.388)" fill="#5eab6f"/>
        <path id="Path_846" data-name="Path 846" d="M393.871,99.359,375.34,111.377a2.028,2.028,0,0,0-.592,2.809L396.68,99.951a2.016,2.016,0,0,0-2.809-.592Z" transform="translate(-141.151 12.029)" fill="#5eab6f"/>
        <path id="Path_847" data-name="Path 847" d="M365.22,99.425a2.028,2.028,0,0,0,2.809.6L386.56,88a2.028,2.028,0,0,0,.6-2.809Z" transform="translate(-143.54 8.435)" fill="#5eab6f"/>
        <path id="Path_848" data-name="Path 848" d="M209.143,71.836l.466-.668-.806-.1.239-.781-.806.151-.013-.819-.718.4-.265-.781-.554.6-.491-.655-.34.743-.68-.466-.088.806-.794-.239.164.806-.819.013.4.718-.781.252.6.567-.655.491.743.34-.479.668.819.1-.239.781.794-.151.013.819.718-.4.265.781.567-.6.479.655.353-.743.668.479.1-.819.781.239-.164-.806.819-.013-.391-.705.768-.277-.592-.554.655-.491Z" transform="translate(52.786 24.435)" fill="#6ab57e"/>
        <path id="Path_849" data-name="Path 849" d="M177.223,92.546l.479-.668-.819-.1.239-.781-.806.164-.013-.819-.705.391-.265-.768-.567.592-.491-.655-.34.743-.668-.466-.1.819-.781-.252.151.806-.819.013.4.718-.768.265.592.554-.655.491.743.34-.466.68.806.088-.239.781.806-.151.013.819.718-.4.265.781.554-.6.491.655.34-.743.668.479.1-.819.781.239-.151-.806h.819l-.4-.718.781-.265-.6-.554.655-.491Z" transform="translate(44.494 29.815)" fill="#6ab57e"/>
        <path id="Path_850" data-name="Path 850" d="M369.64,119.809c0,.882,4.749,1.587,10.62,1.587s10.62-.705,10.62-1.587V117.39H369.64Z" transform="translate(-142.392 16.8)" fill="#f68b2e"/>
        <path id="Path_851" data-name="Path 851" d="M380.26,116.13c-5.871,0-10.62.718-10.62,1.587s4.749,1.587,10.62,1.587,10.62-.718,10.62-1.587S386.13,116.13,380.26,116.13Z" transform="translate(-142.392 16.472)" fill="#ffb136"/>
        <path id="Path_852" data-name="Path 852" d="M368,116.719c0,.882,4.762,1.587,10.62,1.587s10.62-.705,10.62-1.587V114.3H368Z" transform="translate(-142.818 15.997)" fill="#f68b2e"/>
        <path id="Path_853" data-name="Path 853" d="M378.64,113c-5.858,0-10.62.705-10.62,1.587s4.762,1.587,10.62,1.587,10.62-.718,10.62-1.587S384.51,113,378.64,113Z" transform="translate(-142.813 15.659)" fill="#ffb136"/>
        <path id="Path_854" data-name="Path 854" d="M371.36,113.5c0,.882,4.749,1.587,10.62,1.587s10.62-.705,10.62-1.587V111.08H371.36Z" transform="translate(-141.945 15.161)" fill="#f68b2e"/>
        <path id="Path_855" data-name="Path 855" d="M381.98,109.86c-5.87,0-10.62.705-10.62,1.587s4.749,1.587,10.62,1.587,10.62-.718,10.62-1.587S387.85,109.86,381.98,109.86Z" transform="translate(-141.945 14.844)" fill="#ffb136"/>
        <path id="Path_856" data-name="Path 856" d="M369.13,110.651c0,.869,4.762,1.575,10.632,1.575s10.62-.705,10.62-1.575V108.22H369.13Z" transform="translate(-142.524 14.418)" fill="#f68b2e"/>
        <path id="Path_857" data-name="Path 857" d="M379.762,107c-5.87,0-10.632.718-10.632,1.587s4.762,1.587,10.632,1.587,10.62-.705,10.62-1.587S385.62,107,379.762,107Z" transform="translate(-142.524 14.101)" fill="#ffb136"/>
        <path id="Path_858" data-name="Path 858" d="M369.13,108.111c0,.869,4.762,1.575,10.632,1.575s10.62-.705,10.62-1.575V105.68H369.13Z" transform="translate(-142.524 13.758)" fill="#f68b2e"/>
        <path id="Path_859" data-name="Path 859" d="M379.762,104.43c-5.87,0-10.632.705-10.632,1.575s4.762,1.587,10.632,1.587,10.62-.705,10.62-1.587S385.62,104.43,379.762,104.43Z" transform="translate(-142.524 13.433)" fill="#ffb136"/>
        <path id="Path_860" data-name="Path 860" d="M371.36,105.281c0,.869,4.749,1.587,10.62,1.587s10.62-.718,10.62-1.587V102.85H371.36Z" transform="translate(-141.945 13.023)" fill="#f68b2e"/>
        <path id="Path_861" data-name="Path 861" d="M381.98,101.6c-5.87,0-10.62.705-10.62,1.575s4.749,1.587,10.62,1.587,10.62-.705,10.62-1.587S387.85,101.6,381.98,101.6Z" transform="translate(-141.945 12.698)" fill="#ffb136"/>
        <path id="Path_862" data-name="Path 862" d="M369.64,102.779c0,.882,4.749,1.587,10.62,1.587s10.62-.705,10.62-1.587V100.36H369.64Z" transform="translate(-142.392 12.376)" fill="#f68b2e"/>
        <path id="Path_863" data-name="Path 863" d="M380.26,99.1c-5.871,0-10.62.718-10.62,1.587s4.749,1.587,10.62,1.587,10.62-.705,10.62-1.587S386.13,99.1,380.26,99.1Z" transform="translate(-142.392 12.049)" fill="#ffb136"/>
        <path id="Path_864" data-name="Path 864" d="M369.58,100.189c0,.882,4.749,1.587,10.62,1.587s10.62-.705,10.62-1.587V97.77H369.58Z" transform="translate(-142.407 11.703)" fill="#f68b2e"/>
        <path id="Path_865" data-name="Path 865" d="M380.19,96.52c-5.87,0-10.62.705-10.62,1.575s4.762,1.549,10.62,1.549,10.62-.705,10.62-1.587S386.073,96.52,380.19,96.52Z" transform="translate(-142.41 11.378)" fill="#ffb136"/>
        <path id="Path_866" data-name="Path 866" d="M371.2,97.1c0,.882,4.749,1.587,10.62,1.587s10.62-.705,10.62-1.587V94.68H371.2Z" transform="translate(-141.987 10.9)" fill="#f68b2e"/>
        <path id="Path_867" data-name="Path 867" d="M381.82,93.42c-5.87,0-10.62.718-10.62,1.587s4.749,1.587,10.62,1.587,10.62-.705,10.62-1.587S387.678,93.42,381.82,93.42Z" transform="translate(-141.987 10.573)" fill="#ffb136"/>
        <path id="Path_868" data-name="Path 868" d="M367.86,93.919c0,.882,4.762,1.587,10.62,1.587s10.62-.705,10.62-1.587V91.5H367.86Z" transform="translate(-142.854 10.074)" fill="#f68b2e"/>
        <path id="Path_869" data-name="Path 869" d="M378.48,90.24c-5.858,0-10.62.718-10.62,1.587s4.762,1.587,10.62,1.587,10.62-.705,10.62-1.587S384.413,90.24,378.48,90.24Z" transform="translate(-142.854 9.747)" fill="#ffb136"/>
        <path id="Path_870" data-name="Path 870" d="M370.08,91.031c0,.869,4.762,1.575,10.632,1.575s10.62-.705,10.62-1.575V88.6H370.08Z" transform="translate(-142.278 9.321)" fill="#f68b2e"/>
        <path id="Path_871" data-name="Path 871" d="M380.712,87.35c-5.87,0-10.632.705-10.632,1.575s4.762,1.587,10.632,1.587,10.683-.705,10.683-1.587S386.57,87.35,380.712,87.35Z" transform="translate(-142.278 8.996)" fill="#ffb136"/>
        <path id="Path_872" data-name="Path 872" d="M370.08,88.5c0,.869,4.762,1.587,10.632,1.587S391.4,89.358,391.4,88.5V86.07H370.08Z" transform="translate(-142.278 8.664)" fill="#f68b2e"/>
        <path id="Path_873" data-name="Path 873" d="M380.712,84.81c-5.87,0-10.632.705-10.632,1.587s4.762,1.587,10.632,1.587,10.62-.718,10.62-1.587S386.57,84.81,380.712,84.81Z" transform="translate(-142.278 8.337)" fill="#ffb136"/>
        <path id="Path_874" data-name="Path 874" d="M367.86,85.659c0,.869,4.762,1.587,10.62,1.587s10.62-.718,10.62-1.587V83.24H367.86Z" transform="translate(-142.854 7.929)" fill="#f68b2e"/>
        <path id="Path_875" data-name="Path 875" d="M378.48,82c-5.858,0-10.62.705-10.62,1.587s4.762,1.587,10.62,1.587,10.62-.718,10.62-1.587S384.413,82,378.48,82Z" transform="translate(-142.854 7.607)" fill="#ffb136"/>
        <path id="Path_876" data-name="Path 876" d="M369.58,83.171c0,.869,4.749,1.575,10.62,1.575s10.62-.705,10.62-1.575V80.74H369.58Z" transform="translate(-142.407 7.279)" fill="#f68b2e"/>
        <path id="Path_877" data-name="Path 877" d="M380.19,79.49c-5.87,0-10.62.705-10.62,1.575s4.762,1.587,10.62,1.587,10.62-.705,10.62-1.587S386.073,79.49,380.19,79.49Z" transform="translate(-142.41 6.955)" fill="#ffb136"/>
        <path id="Path_878" data-name="Path 878" d="M349.63,122.729c0,.869,4.749,1.587,10.62,1.587s10.62-.718,10.62-1.587V120.31H349.63Z" transform="translate(-147.59 17.558)" fill="#f68b2e"/>
        <path id="Path_879" data-name="Path 879" d="M360.25,119.05c-5.871,0-10.62.705-10.62,1.587s4.749,1.587,10.62,1.587,10.62-.718,10.62-1.587S366.108,119.05,360.25,119.05Z" transform="translate(-147.59 17.231)" fill="#ffb136"/>
        <path id="Path_880" data-name="Path 880" d="M351.85,119.829c0,.882,4.749,1.587,10.62,1.587s10.62-.705,10.62-1.587V117.41H351.85Z" transform="translate(-147.013 16.805)" fill="#f68b2e"/>
        <path id="Path_881" data-name="Path 881" d="M362.47,116.15c-5.871,0-10.62.718-10.62,1.587s4.749,1.587,10.62,1.587,10.62-.705,10.62-1.587S368.34,116.15,362.47,116.15Z" transform="translate(-147.013 16.478)" fill="#ffb136"/>
        <path id="Path_882" data-name="Path 882" d="M351.85,117.3c0,.869,4.749,1.575,10.62,1.575s10.62-.705,10.62-1.575V114.87H351.85Z" transform="translate(-147.013 16.145)" fill="#f68b2e"/>
        <path id="Path_883" data-name="Path 883" d="M362.47,113.62c-5.871,0-10.62.705-10.62,1.575s4.749,1.587,10.62,1.587,10.62-.705,10.62-1.587S368.34,113.62,362.47,113.62Z" transform="translate(-147.013 15.82)" fill="#ffb136"/>
        <path id="Path_884" data-name="Path 884" d="M349.63,114.52c0,.869,4.749,1.575,10.62,1.575s10.62-.705,10.62-1.575V112H349.63Z" transform="translate(-147.59 15.4)" fill="#f68b2e"/>
        <path id="Path_885" data-name="Path 885" d="M360.25,110.78c-5.871,0-10.62.718-10.62,1.587s4.749,1.587,10.62,1.587,10.62-.705,10.62-1.587S366.108,110.78,360.25,110.78Z" transform="translate(-147.59 15.083)" fill="#ffb136"/>
        <path id="Path_886" data-name="Path 886" d="M351.35,111.969c0,.882,4.749,1.587,10.62,1.587s10.62-.705,10.62-1.587V109.55H351.35Z" transform="translate(-147.143 14.763)" fill="#f68b2e"/>
        <path id="Path_887" data-name="Path 887" d="M361.97,108.29c-5.87,0-10.62.705-10.62,1.587s4.749,1.587,10.62,1.587,10.62-.718,10.62-1.587S367.828,108.29,361.97,108.29Z" transform="translate(-147.143 14.436)" fill="#ffb136"/>
        <path id="Path_888" data-name="Path 888" d="M380.1,122.959c0,.882,4.762,1.587,10.62,1.587s10.62-.705,10.62-1.587V120.54H380.1Z" transform="translate(-139.675 17.618)" fill="#f68b2e"/>
        <path id="Path_889" data-name="Path 889" d="M390.72,119.28c-5.858,0-10.62.705-10.62,1.587s4.762,1.587,10.62,1.587,10.62-.718,10.62-1.587S396.59,119.28,390.72,119.28Z" transform="translate(-139.675 17.291)" fill="#ffb136"/>
        <path id="Path_890" data-name="Path 890" d="M381.72,119.869c0,.882,4.749,1.587,10.62,1.587s10.62-.705,10.62-1.587V117.45H381.72Z" transform="translate(-139.254 16.815)" fill="#f68b2e"/>
        <path id="Path_891" data-name="Path 891" d="M392.34,116.19c-5.871,0-10.62.705-10.62,1.587s4.749,1.587,10.62,1.587,10.62-.718,10.62-1.587S398.21,116.19,392.34,116.19Z" transform="translate(-139.254 16.488)" fill="#ffb136"/>
        <path id="Path_892" data-name="Path 892" d="M378.38,116.689c0,.869,4.762,1.587,10.632,1.587s10.607-.718,10.607-1.587V114.27H378.38Z" transform="translate(-140.122 15.989)" fill="#f68b2e"/>
        <path id="Path_893" data-name="Path 893" d="M389.012,113c-5.87,0-10.632.705-10.632,1.587s4.762,1.575,10.632,1.575,10.607-.705,10.607-1.575S394.87,113,389.012,113Z" transform="translate(-140.122 15.659)" fill="#ffb136"/>
        <path id="Path_894" data-name="Path 894" d="M380.61,113.789c0,.882,4.749,1.587,10.62,1.587s10.62-.705,10.62-1.587V111.37H380.61Z" transform="translate(-139.542 15.236)" fill="#f68b2e"/>
        <path id="Path_895" data-name="Path 895" d="M391.19,110.11c-5.87,0-10.62.705-10.62,1.587s4.749,1.587,10.62,1.587,10.62-.718,10.62-1.587S397.1,110.11,391.19,110.11Z" transform="translate(-139.553 14.909)" fill="#ffb136"/>
        <path id="Path_896" data-name="Path 896" d="M379.32,111.079c0,.869,4.762,1.587,10.62,1.587s10.62-.718,10.62-1.587V108.66H379.32Z" transform="translate(-139.877 14.532)" fill="#f68b2e"/>
        <path id="Path_897" data-name="Path 897" d="M389.94,107.4c-5.858,0-10.62.705-10.62,1.587s4.762,1.575,10.62,1.575,10.62-.705,10.62-1.575S395.81,107.4,389.94,107.4Z" transform="translate(-139.877 14.205)" fill="#ffb136"/>
        <path id="Path_898" data-name="Path 898" d="M349.68,109.119c0,.882,4.749,1.587,10.62,1.587s10.62-.705,10.62-1.587V106.7H349.68Z" transform="translate(-147.577 14.023)" fill="#f68b2e"/>
        <path id="Path_899" data-name="Path 899" d="M360.3,105.44c-5.871,0-10.62.718-10.62,1.587s4.749,1.587,10.62,1.587,10.62-.718,10.62-1.587S366.158,105.44,360.3,105.44Z" transform="translate(-147.577 13.696)" fill="#ffb136"/>
        <path id="Path_900" data-name="Path 900" d="M351.29,106.029c0,.882,4.762,1.587,10.632,1.587s10.62-.705,10.62-1.587V103.61H351.29Z" transform="translate(-147.159 13.22)" fill="#f68b2e"/>
        <path id="Path_901" data-name="Path 901" d="M361.922,102.35c-5.87,0-10.632.705-10.632,1.587s4.762,1.587,10.632,1.587,10.62-.718,10.62-1.587S367.78,102.35,361.922,102.35Z" transform="translate(-147.159 12.893)" fill="#ffb136"/>
        <path id="Path_902" data-name="Path 902" d="M348,102.849c0,.869,4.749,1.587,10.62,1.587s10.62-.718,10.62-1.587V100.43H348Z" transform="translate(-148.013 12.394)" fill="#f68b2e"/>
        <path id="Path_903" data-name="Path 903" d="M358.58,99.17c-5.871,0-10.62.705-10.62,1.587s4.749,1.587,10.62,1.587,10.62-.718,10.62-1.587S364.45,99.17,358.58,99.17Z" transform="translate(-148.023 12.067)" fill="#ffb136"/>
        <path id="Path_904" data-name="Path 904" d="M350.18,99.949c0,.882,4.762,1.587,10.62,1.587s10.62-.705,10.62-1.587V97.53H350.18Z" transform="translate(-147.447 11.641)" fill="#f68b2e"/>
        <path id="Path_905" data-name="Path 905" d="M360.8,96.27c-5.858,0-10.62.718-10.62,1.587s4.762,1.587,10.62,1.587,10.62-.718,10.62-1.587S366.67,96.27,360.8,96.27Z" transform="translate(-147.447 11.313)" fill="#ffb136"/>
        <path id="Path_906" data-name="Path 906" d="M348.9,97.239c0,.869,4.749,1.587,10.62,1.587s10.62-.718,10.62-1.587V94.82H348.9Z" transform="translate(-147.779 10.937)" fill="#f68b2e"/>
        <path id="Path_907" data-name="Path 907" d="M359.52,93.56c-5.871,0-10.62.705-10.62,1.587s4.749,1.575,10.62,1.575,10.62-.705,10.62-1.575S365.4,93.56,359.52,93.56Z" transform="translate(-147.779 10.61)" fill="#ffb136"/>
        <path id="Path_908" data-name="Path 908" d="M369.642,73.641c-.239.844,4.145,2.822,9.788,4.422s10.406,2.217,10.645,1.373l.655-2.331L370.3,71.31Z" transform="translate(-142.394 4.83)" fill="#f68b2e"/>
        <path id="Path_909" data-name="Path 909" d="M380.819,72.76c-5.644-1.6-10.418-2.2-10.658-1.373s4.145,2.822,9.788,4.422,10.406,2.217,10.645,1.373S386.463,74.36,380.819,72.76Z" transform="translate(-142.259 4.753)" fill="#ffb136"/>
        <path id="Path_910" data-name="Path 910" d="M389.783,59.9,369.74,66.942l.806,2.28c.29.831,5.039-.076,10.544-2.016s9.776-4.195,9.486-5.039Z" transform="translate(-142.366 1.866)" fill="#f68b2e"/>
        <path id="Path_911" data-name="Path 911" d="M379.241,61.993c-5.543,1.94-9.788,4.182-9.5,5.039s5.039-.076,10.544-2.028,9.788-4.182,9.5-5.039S384.772,60.09,379.241,61.993Z" transform="translate(-142.369 1.802)" fill="#ffb136"/>
        <path id="Path_912" data-name="Path 912" d="M348.911,87.061c-.2.857,4.245,2.671,9.94,4.069s10.481,1.839,10.7,1l.579-2.356L349.491,84.73Z" transform="translate(-147.778 8.316)" fill="#f68b2e"/>
        <path id="Path_913" data-name="Path 913" d="M360.067,85.794c-5.707-1.4-10.481-1.839-10.7-1s4.245,2.683,9.94,4.082,10.481,1.839,10.7.983S365.761,87.192,360.067,85.794Z" transform="translate(-147.659 8.222)" fill="#ffb136"/>
        <path id="Path_914" data-name="Path 914" d="M247.087,88.07c-9.486,0-16.717,8.352-16.717,8.352s17.183,14.4,26.455,8.365S258.387,88.07,247.087,88.07Z" transform="translate(-178.569 9.183)" fill="#5eab6f"/>
        <path id="Path_915" data-name="Path 915" d="M232.945,77.1c-3.893,5.039-2.419,12.308-2.419,12.308s14.689-3.212,15.293-10.62S237.581,71.1,232.945,77.1Z" transform="translate(-178.599 5.24)" fill="#5eab6f"/>
        <path id="Path_916" data-name="Path 916" d="M217.723,79.187c.907,7.37,15.709,10,15.709,10s1.172-7.319-2.91-12.194C225.647,71.187,216.829,71.817,217.723,79.187Z" transform="translate(-181.87 5.293)" fill="#5eab6f"/>
        <path id="Path_917" data-name="Path 917" d="M220.223,88.07c-11.338,0-19.035,10.683-9.751,16.717s26.455-8.365,26.455-8.365S229.709,88.07,220.223,88.07Z" transform="translate(-184.812 9.183)" fill="#5eab6f"/>
        <path id="Path_918" data-name="Path 918" d="M226.633,80.068a32.753,32.753,0,0,0-8.264-5.178,5.883,5.883,0,0,0-.643,3.779c.907,7.37,15.709,10,15.709,10a25.649,25.649,0,0,0-6.8-8.6Z" transform="translate(-181.873 5.76)" fill="#549c63"/>
        <path id="Path_919" data-name="Path 919" d="M235.469,81.4a22.171,22.171,0,0,0-5.039,7.281h0l.252.113c1.789-.428,14.512-3.691,15.117-10.569A6.3,6.3,0,0,0,245.257,75,68.945,68.945,0,0,0,235.469,81.4Z" transform="translate(-178.553 5.788)" fill="#549c63"/>
        <path id="Path_920" data-name="Path 920" d="M219.838,94.872c-7.559,1.6-11.338,4.85-12.358,5.921a10.948,10.948,0,0,0,2.7,2.444c8.743,5.682,24.477-6.74,26.291-8.214A38.5,38.5,0,0,0,219.838,94.872Z" transform="translate(-184.515 10.734)" fill="#549c63"/>
        <path id="Path_921" data-name="Path 921" d="M245.58,94.369a19.766,19.766,0,0,0-14.84.831l.844.894c4.17,3.175,17.41,12.358,25.2,7.332a12.522,12.522,0,0,0,1.625-1.26,29.415,29.415,0,0,0-12.824-7.8Z" transform="translate(-178.473 10.544)" fill="#549c63"/>
        <path id="Path_922" data-name="Path 922" d="M235.222,94.9a23.217,23.217,0,0,0-12.6-1.814,28.647,28.647,0,0,0-10.935,4.5,51.071,51.071,0,0,1,11.338-2.016,18.355,18.355,0,0,1,9.486,2.116c1.033.718,1.348,9.486.315,13.4a75.087,75.087,0,0,1-3.54,9.448l12.925-.265s-4.22-4.434-4.951-8.352-.567-13.555.668-14.55,3.779-2.318,10.267-1.9a33.383,33.383,0,0,1,8.667,2s-4.371-4.082-9.385-4.737A20.786,20.786,0,0,0,235.222,94.9Z" transform="translate(-183.421 10.35)" fill="#81ce8d"/>
        <path id="Path_923" data-name="Path 923" d="M232.218,86.5a14.235,14.235,0,0,0-4.737-5.933,22.335,22.335,0,0,0-4.422-2.746,59.212,59.212,0,0,1,5.039,5.152,19.878,19.878,0,0,1,2.772,4.963,18.682,18.682,0,0,1,.151,6.689,37.931,37.931,0,0,1-1.764,4.724l6.45-.139a10.582,10.582,0,0,1-2.52-4.17,23.619,23.619,0,0,1,.328-7.256,18.267,18.267,0,0,1,2.847-5.241,35.713,35.713,0,0,1,4.724-4.573,14.727,14.727,0,0,0-5.379,3.288A15.294,15.294,0,0,0,232.218,86.5Z" transform="translate(-180.468 6.521)" fill="#81ce8d"/>
        <path id="Path_924" data-name="Path 924" d="M222.8,126.039c0,.781,4.283,1.424,9.549,1.424s9.549-.642,9.549-1.424V123.86H222.8Z" transform="translate(-180.535 18.48)" fill="#f68b2e"/>
        <path id="Path_925" data-name="Path 925" d="M232.349,122.73c-5.266,0-9.549.642-9.549,1.424s4.283,1.424,9.549,1.424,9.549-.63,9.549-1.424S237.627,122.73,232.349,122.73Z" transform="translate(-180.535 18.187)" fill="#ffb136"/>
        <path id="Path_926" data-name="Path 926" d="M224.26,123.259c0,.794,4.271,1.424,9.536,1.424s9.549-.63,9.549-1.424V121.08H224.26Z" transform="translate(-180.156 17.758)" fill="#f68b2e"/>
        <path id="Path_927" data-name="Path 927" d="M233.8,120c-5.266,0-9.536.642-9.536,1.424s4.271,1.424,9.536,1.424,9.549-.63,9.549-1.424S239.05,120,233.8,120Z" transform="translate(-180.156 17.478)" fill="#ffb136"/>
        <path id="Path_928" data-name="Path 928" d="M221.26,120.449c0,.794,4.271,1.424,9.549,1.424s9.536-.63,9.536-1.424V118.27H221.26Z" transform="translate(-180.935 17.028)" fill="#f68b2e"/>
        <path id="Path_929" data-name="Path 929" d="M230.809,117.09c-5.278,0-9.549.642-9.549,1.424s4.271,1.436,9.549,1.436,9.536-.642,9.536-1.436S236.05,117.09,230.809,117.09Z" transform="translate(-180.935 16.722)" fill="#ffb136"/>
        <path id="Path_930" data-name="Path 930" d="M223.26,117.8c0,.781,4.271,1.424,9.536,1.424s9.549-.642,9.549-1.424V115.62H223.26Z" transform="translate(-180.416 16.34)" fill="#f68b2e"/>
        <path id="Path_931" data-name="Path 931" d="M232.8,114.49c-5.266,0-9.536.642-9.536,1.424s4.271,1.424,9.536,1.424,9.549-.63,9.549-1.424S238.05,114.49,232.8,114.49Z" transform="translate(-180.416 16.046)" fill="#ffb136"/>
        <path id="Path_932" data-name="Path 932" d="M223.26,115.519c0,.781,4.271,1.424,9.536,1.424s9.549-.642,9.549-1.424V113.34H223.26Z" transform="translate(-180.416 15.748)" fill="#f68b2e"/>
        <path id="Path_933" data-name="Path 933" d="M232.8,112.21c-5.266,0-9.536.63-9.536,1.424s4.271,1.424,9.536,1.424,9.549-.642,9.549-1.424S238.05,112.21,232.8,112.21Z" transform="translate(-180.416 15.454)" fill="#ffb136"/>
        <path id="Path_934" data-name="Path 934" d="M221.26,112.967c0,.794,4.271,1.436,9.549,1.436s9.536-.642,9.536-1.436V110.8H221.26Z" transform="translate(-180.935 15.088)" fill="#f68b2e"/>
        <path id="Path_935" data-name="Path 935" d="M230.809,109.66c-5.278,0-9.549.642-9.549,1.436s4.271,1.424,9.549,1.424,9.536-.642,9.536-1.424S236.05,109.66,230.809,109.66Z" transform="translate(-180.935 14.792)" fill="#ffb136"/>
        <path id="Path_936" data-name="Path 936" d="M222.8,110.727c0,.794,4.283,1.424,9.549,1.424s9.549-.63,9.549-1.424V108.56H222.8Z" transform="translate(-180.535 14.506)" fill="#f68b2e"/>
        <ellipse id="Ellipse_59" data-name="Ellipse 59" cx="9.549" cy="1.424" rx="9.549" ry="1.424" transform="translate(42.265 121.63)" fill="#ffb136"/>
        <path id="Path_937" data-name="Path 937" d="M238.33,126.329c0,.781,4.271,1.424,9.549,1.424s9.536-.642,9.536-1.424V124.15H238.33Z" transform="translate(-176.501 18.556)" fill="#f68b2e"/>
        <path id="Path_938" data-name="Path 938" d="M247.879,123c-5.278,0-9.549.63-9.549,1.424s4.271,1.424,9.549,1.424,9.536-.642,9.536-1.424S253.145,123,247.879,123Z" transform="translate(-176.501 18.257)" fill="#ffb136"/>
        <path id="Path_939" data-name="Path 939" d="M236.33,123.719c0,.794,4.271,1.424,9.549,1.424s9.549-.63,9.549-1.424V121.54h-19.1Z" transform="translate(-177.02 17.878)" fill="#f68b2e"/>
        <path id="Path_940" data-name="Path 940" d="M245.879,120.41c-5.278,0-9.549.642-9.549,1.424s4.271,1.436,9.549,1.436,9.549-.642,9.549-1.436S251.145,120.41,245.879,120.41Z" transform="translate(-177.02 17.584)" fill="#ffb136"/>
        <path id="Path_941" data-name="Path 941" d="M236.33,121.449c0,.794,4.271,1.424,9.549,1.424s9.549-.63,9.549-1.424V119.27h-19.1Z" transform="translate(-177.02 17.288)" fill="#f68b2e"/>
        <path id="Path_942" data-name="Path 942" d="M245.879,118.13c-5.278,0-9.549.642-9.549,1.424s4.271,1.424,9.549,1.424,9.549-.63,9.549-1.424S251.145,118.13,245.879,118.13Z" transform="translate(-177.02 16.992)" fill="#ffb136"/>
        <path id="Path_943" data-name="Path 943" d="M238.33,118.9c0,.781,4.271,1.424,9.549,1.424s9.536-.642,9.536-1.424V116.72H238.33Z" transform="translate(-176.501 16.626)" fill="#f68b2e"/>
        <path id="Path_944" data-name="Path 944" d="M247.879,115.59c-5.278,0-9.549.642-9.549,1.424s4.271,1.424,9.549,1.424,9.536-.63,9.536-1.424S253.145,115.59,247.879,115.59Z" transform="translate(-176.501 16.332)" fill="#ffb136"/>
        <path id="Path_945" data-name="Path 945" d="M236.78,116.659c0,.781,4.283,1.424,9.549,1.424s9.549-.642,9.549-1.424V114.48h-19.1Z" transform="translate(-176.904 16.044)" fill="#f68b2e"/>
        <ellipse id="Ellipse_60" data-name="Ellipse 60" cx="9.549" cy="1.424" rx="9.549" ry="1.424" transform="translate(59.876 129.088)" fill="#ffb136"/>
        <path id="Path_946" data-name="Path 946" d="M247.75,128.869c0,.781,4.271,1.424,9.549,1.424s9.549-.642,9.549-1.424V126.69h-19.1Z" transform="translate(-174.054 19.215)" fill="#f68b2e"/>
        <path id="Path_947" data-name="Path 947" d="M257.3,125.56c-5.278,0-9.549.642-9.549,1.424s4.271,1.424,9.549,1.424,9.549-.63,9.549-1.424S262.565,125.56,257.3,125.56Z" transform="translate(-174.054 18.922)" fill="#ffb136"/>
        <path id="Path_948" data-name="Path 948" d="M261.15,124.869c0,.781,4.271,1.424,9.549,1.424s9.549-.642,9.549-1.424V122.69h-19.1Z" transform="translate(-170.573 18.176)" fill="#f68b2e"/>
        <path id="Path_949" data-name="Path 949" d="M270.7,121.56c-5.278,0-9.549.642-9.549,1.424s4.271,1.424,9.549,1.424,9.549-.63,9.549-1.424S275.965,121.56,270.7,121.56Z" transform="translate(-170.573 17.883)" fill="#ffb136"/>
        <path id="Path_950" data-name="Path 950" d="M210.49,127.739c0,.781,4.271,1.424,9.549,1.424s9.536-.642,9.536-1.424V125.56H210.49Z" transform="translate(-183.733 18.922)" fill="#f68b2e"/>
        <path id="Path_951" data-name="Path 951" d="M220.039,124.43c-5.278,0-9.549.642-9.549,1.424s4.271,1.424,9.549,1.424,9.536-.642,9.536-1.424S225.3,124.43,220.039,124.43Z" transform="translate(-183.733 18.628)" fill="#ffb136"/>
        <path id="Path_952" data-name="Path 952" d="M209,124.959c0,.781,4.283,1.424,9.549,1.424s9.549-.642,9.549-1.424V122.78H209Z" transform="translate(-184.12 18.2)" fill="#f68b2e"/>
        <path id="Path_953" data-name="Path 953" d="M218.579,121.65c-5.266,0-9.549.642-9.549,1.424s4.283,1.424,9.549,1.424,9.549-.63,9.549-1.424S223.857,121.65,218.579,121.65Z" transform="translate(-184.112 17.906)" fill="#ffb136"/>
        <path id="Path_954" data-name="Path 954" d="M212,122.1c0,.781,4.271,1.424,9.549,1.424s9.549-.642,9.549-1.424V119.92H212Z" transform="translate(-183.34 17.457)" fill="#f68b2e"/>
        <path id="Path_955" data-name="Path 955" d="M221.579,118.79c-5.278,0-9.549.642-9.549,1.424s4.271,1.424,9.549,1.424,9.549-.63,9.549-1.424S226.845,118.79,221.579,118.79Z" transform="translate(-183.333 17.163)" fill="#ffb136"/>
        <path id="Path_956" data-name="Path 956" d="M210,119.5c0,.781,4.283,1.424,9.549,1.424s9.549-.642,9.549-1.424V117.32H210Z" transform="translate(-183.86 16.781)" fill="#f68b2e"/>
        <path id="Path_957" data-name="Path 957" d="M219.579,116.19c-5.266,0-9.549.63-9.549,1.424s4.283,1.424,9.549,1.424,9.549-.642,9.549-1.424S224.857,116.19,219.579,116.19Z" transform="translate(-183.852 16.488)" fill="#ffb136"/>
        <path id="Path_958" data-name="Path 958" d="M211.19,117.059c0,.781,4.271,1.424,9.549,1.424s9.536-.642,9.536-1.424V114.88H211.19Z" transform="translate(-183.551 16.148)" fill="#f68b2e"/>
        <path id="Path_959" data-name="Path 959" d="M220.739,113.75c-5.278,0-9.549.642-9.549,1.424s4.271,1.424,9.549,1.424,9.536-.642,9.536-1.424S226.068,113.75,220.739,113.75Z" transform="translate(-183.551 15.854)" fill="#ffb136"/>
      </g>
    </g>
  </g>
</svg>
