<svg xmlns="http://www.w3.org/2000/svg" width="22.196" height="19.421" viewBox="0 0 22.196 19.421">
  <path id="Path_48" data-name="Path 48" d="M150.195,146.334a7.61,7.61,0,0,1-2.541.776,5.2,5.2,0,0,0,1.909-2.678,7.087,7.087,0,0,1-2.857,1.089.005.005,0,0,0,0,0A4.419,4.419,0,0,0,143.4,144a4.765,4.765,0,0,0-4.579,4.931,5.223,5.223,0,0,0,.118,1.1h0a12.879,12.879,0,0,1-9.7-5.115,5.164,5.164,0,0,0,1.388,6.515,2.79,2.79,0,0,1-2-.556,4.714,4.714,0,0,0,3.532,4.817,3.344,3.344,0,0,1-1.906.154,4.407,4.407,0,0,0,4.092,3.349A7.181,7.181,0,0,1,128,161.24a13.024,13.024,0,0,0,7.162,2.181c7.387,0,13.124-6.447,12.816-14.4,0-.01,0-.019,0-.027s0-.043,0-.062,0-.049,0-.074A8.247,8.247,0,0,0,150.195,146.334Z" transform="translate(-127.999 -144)" fill="#fff"/>
</svg>
